<?xml version="1.0" standalone="no"?>
<!DOCTYPE svg PUBLIC "-//W3C//DTD SVG 20010904//EN"
 "http://www.w3.org/TR/2001/REC-SVG-20010904/DTD/svg10.dtd">
<svg version="1.0" xmlns="http://www.w3.org/2000/svg"
 width="700.000000pt" height="700.000000pt" viewBox="0 0 700.000000 700.000000"
 preserveAspectRatio="xMidYMid meet">
<metadata>
Created by potrace 1.14, written by Peter Selinger 2001-2017
</metadata>
<g transform="translate(0.000000,700.000000) scale(0.100000,-0.100000)"
fill="#000000" stroke="none">
<path d="M303 6985 c-154 -42 -261 -155 -293 -310 -7 -34 -9 -1062 -8 -3205
l3 -3155 23 -58 c45 -111 133 -195 246 -234 49 -17 196 -18 3226 -18 3030 0
3177 1 3226 18 113 39 201 123 246 234 l23 58 0 3180 c0 3034 -1 3182 -18
3231 -39 113 -123 201 -234 246 l-58 23 -3165 2 c-2704 1 -3173 0 -3217 -12z
m1926 -2010 c40 -12 70 -31 112 -72 52 -50 62 -55 90 -49 24 4 30 3 26 -8 -4
-10 8 -15 47 -20 29 -3 70 -13 91 -21 35 -15 36 -17 21 -34 -16 -17 -16 -19
-1 -25 9 -3 27 -6 39 -6 13 0 34 -8 47 -18 13 -10 54 -32 90 -49 41 -19 77
-44 95 -67 29 -36 69 -51 58 -21 -4 8 -1 15 4 15 6 0 12 -10 14 -22 2 -12 17
-29 33 -38 30 -17 30 -17 67 16 43 39 24 35 401 79 444 52 555 59 652 40 100
-19 140 -19 238 0 43 8 113 15 155 15 43 0 131 7 197 15 65 8 151 15 189 15
50 0 82 6 113 21 35 17 53 20 96 14 28 -3 149 -9 267 -11 239 -6 243 -7 255
-72 8 -48 50 -119 73 -126 49 -14 84 -17 95 -8 7 5 22 12 35 15 25 6 23 0 -22
-50 l-19 -23 81 0 c45 0 82 -2 82 -5 0 -2 -5 -16 -12 -30 -12 -27 -69 -57
-131 -69 -39 -7 -45 -17 -23 -35 8 -7 12 -21 9 -31 -4 -13 0 -20 10 -20 12 0
35 -48 25 -54 -10 -6 -111 -30 -153 -37 -27 -4 -111 -8 -185 -8 -113 -1 -141
2 -170 17 -48 26 -50 42 -3 43 35 1 33 2 -27 18 -44 12 -66 14 -69 7 -7 -19
-25 -26 -71 -26 -44 0 -46 -2 -65 -42 -17 -37 -25 -43 -55 -46 -47 -4 -68 15
-72 63 l-3 39 115 12 c63 7 142 18 175 25 l60 13 -35 9 c-44 11 -123 9 -174
-4 -21 -6 -59 -8 -85 -4 -25 3 -122 -1 -216 -9 -93 -9 -178 -16 -189 -16 -14
0 -17 -6 -14 -24 4 -21 -3 -28 -49 -52 -29 -16 -53 -28 -53 -29 0 0 9 -34 21
-75 16 -61 21 -119 26 -316 6 -229 5 -246 -17 -333 -16 -64 -26 -89 -33 -82
-7 7 -7 24 0 56 6 25 7 45 4 45 -13 0 -71 -40 -71 -50 0 -5 12 -10 26 -10 35
0 26 -24 -11 -28 -18 -2 -33 2 -40 11 -7 9 -16 12 -24 8 -9 -6 -4 -15 20 -34
l33 -26 -28 -11 c-21 -8 -32 -7 -42 1 -23 19 -17 -14 7 -46 16 -19 28 -26 46
-22 15 3 22 0 20 -7 -2 -6 -16 -12 -30 -14 -32 -4 -36 -27 -7 -35 13 -3 20
-14 20 -29 0 -14 13 -37 31 -54 l30 -29 -6 -115 c-6 -89 -14 -135 -37 -205
-17 -49 -34 -94 -39 -99 -5 -5 -1 -15 8 -21 10 -8 14 -19 9 -30 -5 -14 -9 -16
-18 -7 -19 19 -26 14 -30 -23 -2 -19 -3 -35 -1 -35 1 0 12 10 24 23 l22 22 -6
-39 c-3 -21 -1 -60 5 -86 15 -66 -4 -140 -36 -140 -27 0 -46 18 -39 37 4 9 -5
18 -25 25 -18 7 -33 21 -35 33 -2 11 -5 -12 -6 -50 -1 -64 1 -71 22 -80 18 -8
22 -19 25 -65 l2 -55 -26 29 -26 29 6 -64 c7 -79 9 -196 3 -309 -3 -76 -6 -85
-24 -88 -29 -4 -33 13 -44 193 -5 88 -14 184 -20 213 -9 46 -13 52 -35 52 -17
0 -24 -6 -24 -18 0 -33 -11 -32 -58 3 -36 28 -80 45 -82 33 -1 -2 -7 -72 -14
-156 -10 -111 -19 -158 -30 -171 -9 -10 -16 -33 -16 -52 0 -20 -7 -60 -16 -90
-12 -38 -15 -75 -11 -126 6 -84 -8 -99 -18 -21 -4 29 -27 132 -51 228 -48 189
-74 371 -74 516 0 70 7 120 31 210 39 153 44 164 139 308 98 149 111 185 103
271 -5 54 -8 62 -18 48 -16 -22 -61 -10 -68 19 -7 26 7 38 47 38 l29 0 -7 53
c-3 28 -6 89 -6 134 0 59 -4 86 -15 97 -19 19 -19 26 1 26 12 0 15 6 10 23
-15 50 -18 95 -6 102 8 5 4 15 -15 35 -26 27 -26 28 -10 66 20 46 14 118 -14
173 -10 20 -22 51 -26 70 l-7 35 -14 -25 c-13 -23 -13 -23 -14 19 0 37 -3 42
-23 42 -17 0 -27 -9 -38 -32 -13 -31 -17 -33 -71 -36 -57 -3 -58 -2 -74 30
l-16 34 -129 -1 c-116 0 -129 -2 -129 -17 0 -22 -16 -24 -24 -3 -4 10 -19 15
-48 15 -70 0 -91 -9 -85 -36 3 -16 0 -24 -9 -24 -8 0 -14 -6 -14 -13 0 -22
-66 -150 -96 -187 -47 -58 -117 -117 -121 -102 -6 15 -35 16 -50 1 -7 -7 -29
-15 -50 -18 -24 -4 -38 -12 -38 -21 0 -9 7 -14 19 -12 17 3 18 2 7 -12 -8 -9
-24 -16 -36 -16 -24 0 -52 -26 -41 -37 4 -4 16 -1 27 6 27 16 31 11 17 -26 -8
-21 -25 -37 -55 -52 -33 -16 -45 -28 -49 -51 -6 -30 -27 -40 -40 -19 -3 6 20
35 52 65 33 30 56 54 52 54 -16 0 -226 -151 -271 -195 -47 -45 -59 -80 -27
-80 10 0 14 8 12 24 -2 15 0 21 7 17 6 -4 11 -14 11 -22 0 -17 -4 -17 45 1 45
16 95 19 95 7 0 -8 -81 -49 -210 -105 -30 -13 -61 -31 -69 -40 -15 -18 -41
-23 -41 -7 0 15 -69 24 -96 11 -41 -18 -29 -34 21 -28 55 8 59 -6 6 -21 -51
-16 -61 -15 -61 4 0 10 -5 14 -15 10 -9 -3 -68 -22 -133 -42 -327 -100 -350
-111 -379 -174 -12 -29 -26 -42 -44 -46 -25 -6 -27 -10 -32 -77 -3 -40 -2 -94
3 -122 4 -27 5 -56 3 -63 -3 -7 0 -25 7 -41 9 -23 9 -37 0 -64 -11 -28 -10
-38 3 -63 50 -90 58 -116 52 -154 -7 -40 -42 -85 -76 -95 -24 -8 -24 -12 2
-69 19 -44 20 -58 13 -274 -5 -187 -4 -234 9 -269 12 -36 12 -43 0 -47 -8 -3
-24 -1 -35 5 -11 6 -44 12 -72 13 -50 1 -52 2 -84 51 -19 28 -44 54 -58 58
-17 6 -27 20 -34 50 -6 23 -19 65 -29 92 -12 31 -17 63 -14 82 5 33 -3 39 -44
34 -7 -1 -13 3 -13 9 0 5 4 10 9 10 22 0 32 351 18 660 -20 443 -22 466 -42
496 -11 16 -25 49 -31 74 -6 25 -14 52 -18 62 -5 11 -2 17 10 20 12 2 17 14
19 43 1 22 8 76 15 120 15 101 9 165 -28 285 -43 138 -78 291 -92 400 -14 106
-21 126 -50 135 -24 8 -41 39 -70 128 -34 104 -28 119 100 257 89 96 106 119
92 125 -15 6 -14 9 7 26 20 16 34 19 75 14 34 -4 65 -1 92 9 23 8 46 11 50 6
5 -5 65 -4 134 1 68 5 130 7 137 5 16 -7 17 6 1 22 -6 6 -10 13 -7 15 8 6 205
70 239 78 53 12 228 2 289 -16z m3986 11 c72 -30 86 -134 25 -188 -58 -53
-182 -31 -214 37 -20 41 -20 58 -1 96 32 62 115 86 190 55z m-3125 -166 c0 -5
-7 -7 -15 -4 -8 4 -15 8 -15 10 0 2 7 4 15 4 8 0 15 -4 15 -10z m1598 -53 c4
-21 -24 -13 -32 9 -4 11 -1 14 11 12 10 -2 19 -11 21 -21z m1191 -32 c28 -28
23 -63 -14 -101 -50 -50 -135 -14 -135 59 0 72 90 98 149 42z m137 -243 c-9
-8 -26 10 -26 26 1 15 2 15 15 -2 8 -11 13 -21 11 -24z m-141 8 c3 -5 -1 -10
-9 -10 -9 0 -16 5 -16 10 0 6 4 10 9 10 6 0 13 -4 16 -10z m-995 -240 c12 -8
12 -10 -2 -15 -24 -9 -61 -2 -66 13 -4 14 45 17 68 2z m-93 -117 c2 -6 -5 -13
-17 -16 -12 -3 -20 0 -20 7 0 26 29 33 37 9z m260 -25 c50 -55 52 -96 7 -116
-69 -32 -134 -1 -134 62 0 65 84 101 127 54z m-1137 -93 c0 -14 -4 -25 -10
-25 -11 0 -14 33 -3 43 11 11 13 8 13 -18z m-470 0 c16 -19 14 -22 -32 -30
-30 -6 -38 -4 -47 13 -9 17 -8 21 7 25 35 9 60 7 72 -8z m359 -91 c28 -36 26
-61 -11 -132 l-31 -62 -38 21 c-43 25 -59 54 -59 108 0 56 31 91 80 91 30 0
43 -6 59 -26z m116 -34 c-10 -11 -22 -20 -27 -20 -4 0 -8 9 -8 20 0 15 7 20
27 20 25 0 26 0 8 -20z m-685 -105 c0 -13 -4 -14 -20 -5 -11 6 -20 13 -20 15
0 3 9 5 20 5 11 0 20 -7 20 -15z m650 -107 c0 -24 -9 -97 -20 -163 -11 -66
-20 -141 -20 -167 0 -34 -4 -48 -14 -48 -8 0 -16 6 -18 13 -7 18 20 241 37
308 8 31 15 66 15 78 0 12 5 21 10 21 6 0 10 -19 10 -42z m-124 -1 c6 -6 -36
-68 -51 -73 -38 -15 -64 64 -28 84 14 8 68 1 79 -11z m1094 -57 c0 -11 -7 -20
-15 -20 -8 0 -15 9 -15 20 0 11 7 20 15 20 8 0 15 -9 15 -20z m-1875 -10 c3
-6 -1 -7 -9 -4 -18 7 -21 14 -7 14 6 0 13 -4 16 -10z m671 -126 c-10 -39 -17
-50 -35 -52 -13 -2 -28 1 -33 6 -16 16 1 69 34 104 30 32 31 32 39 12 4 -12 2
-43 -5 -70z m-636 -415 c0 -6 -4 -7 -10 -4 -5 3 -10 11 -10 16 0 6 5 7 10 4 6
-3 10 -11 10 -16z m2083 -271 c8 -29 -1 -40 -26 -32 -30 9 -30 9 -17 33 14 27
36 27 43 -1z m-2185 -257 c3 -8 -1 -12 -9 -9 -7 2 -15 10 -17 17 -3 8 1 12 9
9 7 -2 15 -10 17 -17z m-988 -12 c9 -16 8 -25 -6 -40 -22 -24 -46 -24 -67 -1
-15 16 -15 20 -1 40 19 28 60 29 74 1z m1193 -6 c-7 -2 -19 -2 -25 0 -7 3 -2
5 12 5 14 0 19 -2 13 -5z m375 -11 c6 -18 -15 -14 -22 4 -4 10 -1 14 6 12 6
-2 14 -10 16 -16z m812 -137 c0 -8 -4 -17 -10 -20 -6 -4 -10 5 -10 20 0 15 4
24 10 20 6 -3 10 -12 10 -20z m106 -108 c-14 -29 -34 -58 -46 -65 -19 -11 -20
-10 -20 22 0 26 10 45 43 80 51 57 61 41 23 -37z m-386 -68 c0 -5 -4 -9 -10
-9 -5 0 -10 7 -10 16 0 8 5 12 10 9 6 -3 10 -10 10 -16z m92 -51 c-17 -18 -35
-28 -39 -24 -4 4 7 21 25 38 44 38 56 27 14 -14z m-1757 22 c3 -5 2 -10 -4
-10 -5 0 -13 5 -16 10 -3 6 -2 10 4 10 5 0 13 -4 16 -10z m2022 -91 c6 -30 12
-85 12 -123 1 -60 -1 -67 -14 -56 -8 7 -15 23 -15 35 0 15 -6 22 -17 21 -23
-1 -29 35 -8 50 15 11 15 13 -4 24 -17 9 -21 20 -21 64 0 54 0 54 28 47 23 -6
29 -15 39 -62z m-747 -29 c0 -15 -7 -20 -25 -20 -18 0 -25 5 -25 20 0 15 7 20
25 20 18 0 25 -5 25 -20z m895 -10 c3 -5 1 -10 -4 -10 -6 0 -11 5 -11 10 0 6
2 10 4 10 3 0 8 -4 11 -10z"/>
<path d="M5050 4730 c-11 -7 -8 -9 15 -9 17 1 41 5 55 9 22 7 20 8 -15 9 -22
0 -47 -4 -55 -9z"/>
<path d="M2195 4640 c-26 -5 -48 -18 -67 -40 -43 -52 -77 -70 -135 -70 -73 0
-99 -12 -106 -50 -5 -21 -38 -65 -99 -131 -99 -107 -119 -117 -181 -84 -27 14
-28 13 -38 -13 -16 -40 -22 -277 -12 -430 11 -158 15 -164 103 -170 63 -5 77
6 38 27 -22 11 -21 11 7 6 17 -3 72 -8 123 -12 65 -4 92 -10 92 -19 0 -24 18
-24 61 0 24 14 67 28 94 32 57 8 86 21 165 74 30 20 78 47 105 59 69 30 101
64 141 146 19 38 39 74 44 79 16 16 11 36 -7 36 -16 0 -16 2 -3 11 11 8 12 12
3 16 -8 3 -13 24 -13 53 0 27 -9 88 -20 135 -11 47 -20 106 -20 130 0 35 -4
45 -16 45 -28 0 -134 62 -155 91 -10 15 -22 41 -25 58 -7 33 -11 34 -79 21z
m-120 -250 c-3 -5 -13 -10 -21 -10 -8 0 -14 5 -14 10 0 6 9 10 21 10 11 0 17
-4 14 -10z m-460 -170 c3 -5 2 -10 -4 -10 -5 0 -13 5 -16 10 -3 6 -2 10 4 10
5 0 13 -4 16 -10z m-5 -233 c0 -10 -4 -15 -10 -12 -5 3 -10 18 -10 33 0 21 2
24 10 12 5 -8 10 -23 10 -33z m0 -73 c0 -14 -3 -14 -15 -4 -8 7 -15 14 -15 16
0 2 7 4 15 4 8 0 15 -7 15 -16z"/>
<path d="M1698 4323 c7 -3 16 -2 19 1 4 3 -2 6 -13 5 -11 0 -14 -3 -6 -6z"/>
<path d="M1521 3744 c0 -11 3 -14 6 -6 3 7 2 16 -1 19 -3 4 -6 -2 -5 -13z"/>
<path d="M1735 3652 c6 -5 21 -13 34 -17 17 -5 22 -4 19 6 -3 8 -18 15 -34 17
-19 2 -25 0 -19 -6z"/>
<path d="M1790 3586 c0 -5 3 -6 7 -3 10 11 32 -13 26 -29 -7 -19 17 -18 45 2
18 12 20 19 12 29 -13 16 -90 16 -90 1z"/>
<path d="M2475 3370 c-3 -5 1 -10 10 -10 9 0 13 5 10 10 -3 6 -8 10 -10 10 -2
0 -7 -4 -10 -10z"/>
<path d="M1602 2900 c0 -19 2 -27 5 -17 2 9 2 25 0 35 -3 9 -5 1 -5 -18z"/>
<path d="M1541 2804 c0 -11 3 -14 6 -6 3 7 2 16 -1 19 -3 4 -6 -2 -5 -13z"/>
<path d="M1573 2578 c-6 -7 -7 -22 -3 -33 7 -19 7 -19 18 1 13 25 1 52 -15 32z"/>
<path d="M4010 2304 c0 -8 5 -12 10 -9 6 4 8 11 5 16 -9 14 -15 11 -15 -7z"/>
</g>
</svg>
