<svg width="390" height="49" viewBox="0 0 390 49" fill="none" xmlns="http://www.w3.org/2000/svg">
<g filter="url(#filter0_b_489_1541)">
<rect y="0.548828" width="390" height="47" fill="black" fill-opacity="0.6"/>
</g>
<rect x="124" y="7.54883" width="249" height="33" rx="16.5" fill="black" fill-opacity="0.5"/>
<rect x="123.5" y="7.04883" width="250" height="34" rx="17" stroke="white" stroke-opacity="0.25"/>
<path fill-rule="evenodd" clip-rule="evenodd" d="M370 24.0488C370 31.5047 363.956 37.5488 356.5 37.5488C349.044 37.5488 343 31.5047 343 24.0488C343 16.593 349.044 10.5488 356.5 10.5488C363.956 10.5488 370 16.593 370 24.0488ZM347.333 23.5488C347.333 22.9965 347.781 22.5488 348.333 22.5488C348.886 22.5488 349.333 22.9965 349.333 23.5488V25.0488C349.333 25.6011 348.886 26.0488 348.333 26.0488C347.781 26.0488 347.333 25.6011 347.333 25.0488V23.5488ZM351.5 19.5488C350.948 19.5488 350.5 19.9965 350.5 20.5488V27.5488C350.5 28.1011 350.948 28.5488 351.5 28.5488C352.052 28.5488 352.5 28.1011 352.5 27.5488V20.5488C352.5 19.9965 352.052 19.5488 351.5 19.5488ZM353.667 17.5488C353.667 16.9965 354.114 16.5488 354.667 16.5488C355.219 16.5488 355.667 16.9965 355.667 17.5488V30.5488C355.667 31.1011 355.219 31.5488 354.667 31.5488C354.114 31.5488 353.667 31.1011 353.667 30.5488V17.5488ZM358 19.2988C357.448 19.2988 357 19.7465 357 20.2988V28.2988C357 28.8511 357.448 29.2988 358 29.2988C358.552 29.2988 359 28.8511 359 28.2988V20.2988C359 19.7465 358.552 19.2988 358 19.2988ZM360.33 19.5488C360.33 18.9965 360.778 18.5488 361.33 18.5488C361.882 18.5488 362.33 18.9965 362.33 19.5488V29.0488C362.33 29.6011 361.882 30.0488 361.33 30.0488C360.778 30.0488 360.33 29.6011 360.33 29.0488V19.5488ZM364.667 22.5488C364.114 22.5488 363.667 22.9965 363.667 23.5488V25.0488C363.667 25.6011 364.114 26.0488 364.667 26.0488C365.219 26.0488 365.667 25.6011 365.667 25.0488V23.5488C365.667 22.9965 365.219 22.5488 364.667 22.5488Z" fill="white" fill-opacity="0.45"/>
<path d="M138.378 30.5488H139.822V21.6006H138.378V30.5488ZM139.108 19.874C139.385 19.874 139.62 19.7772 139.814 19.5835C140.008 19.3843 140.104 19.1491 140.104 18.8779C140.104 18.6012 140.008 18.366 139.814 18.1724C139.62 17.9787 139.385 17.8818 139.108 17.8818C138.837 17.8818 138.602 17.9787 138.403 18.1724C138.209 18.366 138.112 18.6012 138.112 18.8779C138.112 19.1491 138.209 19.3843 138.403 19.5835C138.602 19.7772 138.837 19.874 139.108 19.874ZM142.728 30.5488H144.122V21.4014H144.853L143.184 18.9028L147.999 30.5488H149.26L154.083 18.9028L152.406 21.4014H153.137V30.5488H154.531V18.5708H152.796L148.696 28.5649H148.563L144.462 18.5708H142.728V30.5488ZM161.056 30.7065C161.581 30.7065 162.055 30.6401 162.475 30.5073C162.901 30.369 163.269 30.1864 163.579 29.9595C163.889 29.7271 164.141 29.4697 164.334 29.1875C164.534 28.8997 164.672 28.6037 164.75 28.2993L164.766 28.2329H163.322L163.289 28.3076C163.211 28.4847 163.076 28.659 162.882 28.8306C162.688 29.0021 162.442 29.1432 162.143 29.2539C161.844 29.3646 161.493 29.4199 161.089 29.4199C160.547 29.4199 160.076 29.3009 159.678 29.063C159.279 28.8195 158.972 28.4736 158.756 28.0254C158.541 27.5716 158.433 27.0265 158.433 26.3901V25.8174C158.433 25.1478 158.543 24.5833 158.765 24.124C158.986 23.6647 159.285 23.3188 159.661 23.0864C160.043 22.8485 160.475 22.7295 160.956 22.7295C161.438 22.7295 161.864 22.8429 162.234 23.0698C162.605 23.2912 162.896 23.6287 163.106 24.0825C163.316 24.5363 163.421 25.1146 163.421 25.8174V26.3901L164.135 25.3359H157.702V26.4897H164.874V25.9253C164.874 25.0343 164.716 24.2541 164.401 23.5845C164.091 22.9093 163.643 22.3836 163.056 22.0073C162.475 21.631 161.778 21.4429 160.964 21.4429C160.156 21.4429 159.451 21.6393 158.848 22.0322C158.244 22.4251 157.777 22.9702 157.445 23.6675C157.118 24.3647 156.955 25.1755 156.955 26.0996V26.1079C156.955 27.0431 157.118 27.8566 157.445 28.5483C157.777 29.2345 158.247 29.7658 158.856 30.1421C159.47 30.5184 160.203 30.7065 161.056 30.7065ZM170.187 30.7065C170.867 30.7065 171.476 30.5931 172.013 30.3662C172.555 30.1393 172.984 29.8239 173.299 29.4199C173.615 29.0104 173.772 28.54 173.772 28.0088V27.9922C173.772 27.3503 173.565 26.8384 173.15 26.4565C172.74 26.0747 172.115 25.7814 171.274 25.5767L169.896 25.2446C169.37 25.1174 168.988 24.9541 168.75 24.7549C168.513 24.5557 168.394 24.3039 168.394 23.9995V23.9829C168.394 23.7173 168.474 23.4849 168.634 23.2856C168.795 23.0864 169.013 22.9315 169.29 22.8208C169.567 22.7046 169.882 22.6465 170.236 22.6465C170.779 22.6465 171.219 22.7572 171.556 22.9785C171.894 23.1999 172.11 23.4876 172.204 23.8418H173.623C173.557 23.3548 173.374 22.9315 173.075 22.5718C172.782 22.2121 172.392 21.9354 171.905 21.7417C171.423 21.5425 170.87 21.4429 170.245 21.4429C169.614 21.4429 169.047 21.5563 168.543 21.7832C168.039 22.0101 167.641 22.32 167.348 22.7129C167.06 23.1058 166.916 23.5513 166.916 24.0493V24.0576C166.916 24.6995 167.112 25.2142 167.505 25.6016C167.898 25.9834 168.513 26.2739 169.348 26.4731L170.734 26.8052C171.288 26.938 171.686 27.1123 171.93 27.3281C172.173 27.5384 172.295 27.7957 172.295 28.1001V28.1167C172.295 28.3879 172.206 28.6286 172.029 28.8389C171.852 29.0436 171.609 29.2069 171.299 29.3286C170.994 29.4448 170.64 29.5029 170.236 29.5029C169.666 29.5029 169.204 29.3895 168.85 29.1626C168.496 28.9357 168.258 28.6369 168.136 28.2661H166.659C166.714 28.7586 166.894 29.1875 167.198 29.5527C167.508 29.918 167.918 30.203 168.427 30.4077C168.936 30.6069 169.522 30.7065 170.187 30.7065ZM178.919 30.7065C179.6 30.7065 180.208 30.5931 180.745 30.3662C181.287 30.1393 181.716 29.8239 182.032 29.4199C182.347 29.0104 182.505 28.54 182.505 28.0088V27.9922C182.505 27.3503 182.297 26.8384 181.882 26.4565C181.473 26.0747 180.847 25.7814 180.006 25.5767L178.628 25.2446C178.103 25.1174 177.721 24.9541 177.483 24.7549C177.245 24.5557 177.126 24.3039 177.126 23.9995V23.9829C177.126 23.7173 177.206 23.4849 177.367 23.2856C177.527 23.0864 177.746 22.9315 178.022 22.8208C178.299 22.7046 178.615 22.6465 178.969 22.6465C179.511 22.6465 179.951 22.7572 180.289 22.9785C180.626 23.1999 180.842 23.4876 180.936 23.8418H182.355C182.289 23.3548 182.106 22.9315 181.808 22.5718C181.514 22.2121 181.124 21.9354 180.637 21.7417C180.156 21.5425 179.602 21.4429 178.977 21.4429C178.346 21.4429 177.779 21.5563 177.275 21.7832C176.772 22.0101 176.373 22.32 176.08 22.7129C175.792 23.1058 175.648 23.5513 175.648 24.0493V24.0576C175.648 24.6995 175.845 25.2142 176.238 25.6016C176.631 25.9834 177.245 26.2739 178.081 26.4731L179.467 26.8052C180.02 26.938 180.419 27.1123 180.662 27.3281C180.906 27.5384 181.027 27.7957 181.027 28.1001V28.1167C181.027 28.3879 180.939 28.6286 180.762 28.8389C180.585 29.0436 180.341 29.2069 180.031 29.3286C179.727 29.4448 179.373 29.5029 178.969 29.5029C178.399 29.5029 177.937 29.3895 177.583 29.1626C177.228 28.9357 176.99 28.6369 176.869 28.2661H175.391C175.446 28.7586 175.626 29.1875 175.931 29.5527C176.241 29.918 176.65 30.203 177.159 30.4077C177.668 30.6069 178.255 30.7065 178.919 30.7065ZM187.203 30.7065C187.607 30.7065 187.978 30.6512 188.315 30.5405C188.653 30.4243 188.955 30.2555 189.22 30.0342C189.491 29.8128 189.721 29.5444 189.909 29.229H190.042V30.5488H191.486V24.4229C191.486 23.8031 191.354 23.2718 191.088 22.8291C190.828 22.3809 190.443 22.0378 189.934 21.7998C189.431 21.5618 188.813 21.4429 188.083 21.4429C187.447 21.4429 186.879 21.5425 186.381 21.7417C185.883 21.9354 185.477 22.2093 185.161 22.5635C184.851 22.9121 184.658 23.3216 184.58 23.792L184.572 23.8418H186.016L186.024 23.8169C186.141 23.4683 186.37 23.1999 186.713 23.0117C187.056 22.818 187.496 22.7212 188.033 22.7212C188.703 22.7212 189.204 22.8678 189.536 23.1611C189.873 23.4489 190.042 23.8695 190.042 24.4229V27.2119C190.042 27.638 189.931 28.0199 189.71 28.3574C189.494 28.695 189.195 28.9634 188.813 29.1626C188.432 29.3563 187.994 29.4531 187.502 29.4531C186.982 29.4531 186.55 29.3286 186.207 29.0796C185.864 28.825 185.692 28.4709 185.692 28.0171V28.0005C185.692 27.5578 185.847 27.2147 186.157 26.9712C186.473 26.7277 186.971 26.5866 187.651 26.5479L190.764 26.3486V25.1948L187.477 25.394C186.437 25.4549 185.632 25.7122 185.062 26.166C184.497 26.6143 184.215 27.2368 184.215 28.0337V28.0503C184.215 28.5926 184.345 29.063 184.605 29.4614C184.871 29.8599 185.228 30.167 185.676 30.3828C186.13 30.5986 186.639 30.7065 187.203 30.7065ZM197.812 33.7031C198.625 33.7031 199.331 33.5675 199.928 33.2964C200.526 33.0308 200.985 32.6517 201.306 32.1592C201.633 31.6667 201.796 31.0884 201.796 30.4243V21.6006H200.352V23.0781H200.252C200.069 22.7406 199.84 22.45 199.563 22.2065C199.292 21.9631 198.979 21.7749 198.625 21.6421C198.271 21.5093 197.883 21.4429 197.463 21.4429C196.683 21.4429 196.01 21.631 195.446 22.0073C194.881 22.3781 194.444 22.89 194.134 23.543C193.83 24.1904 193.678 24.932 193.678 25.7676V25.7842C193.678 26.6198 193.83 27.3613 194.134 28.0088C194.439 28.6562 194.87 29.1654 195.429 29.5361C195.994 29.9014 196.66 30.084 197.43 30.084C197.839 30.084 198.221 30.0259 198.575 29.9097C198.929 29.7879 199.248 29.6108 199.53 29.3784C199.812 29.146 200.047 28.8665 200.235 28.54H200.368V30.3496C200.368 31.0081 200.141 31.5173 199.688 31.877C199.239 32.2422 198.614 32.4248 197.812 32.4248C197.17 32.4248 196.655 32.3141 196.268 32.0928C195.88 31.877 195.648 31.6003 195.57 31.2627L195.562 31.2544H194.068L194.051 31.2627C194.129 31.7497 194.325 32.1758 194.641 32.541C194.962 32.9118 195.39 33.1968 195.927 33.396C196.464 33.6007 197.092 33.7031 197.812 33.7031ZM197.745 28.8057C197.192 28.8057 196.721 28.6784 196.334 28.4238C195.952 28.1637 195.659 27.8068 195.454 27.353C195.255 26.8993 195.155 26.3763 195.155 25.7842V25.7676C195.155 25.1755 195.255 24.6497 195.454 24.1904C195.659 23.7311 195.952 23.3714 196.334 23.1113C196.721 22.8512 197.192 22.7212 197.745 22.7212C198.299 22.7212 198.772 22.8512 199.165 23.1113C199.563 23.3714 199.867 23.7311 200.078 24.1904C200.293 24.6497 200.401 25.1755 200.401 25.7676V25.7842C200.401 26.3763 200.293 26.8993 200.078 27.353C199.867 27.8068 199.563 28.1637 199.165 28.4238C198.772 28.6784 198.299 28.8057 197.745 28.8057ZM208.138 30.7065C208.663 30.7065 209.137 30.6401 209.557 30.5073C209.983 30.369 210.351 30.1864 210.661 29.9595C210.971 29.7271 211.223 29.4697 211.417 29.1875C211.616 28.8997 211.754 28.6037 211.832 28.2993L211.848 28.2329H210.404L210.371 28.3076C210.293 28.4847 210.158 28.659 209.964 28.8306C209.77 29.0021 209.524 29.1432 209.225 29.2539C208.926 29.3646 208.575 29.4199 208.171 29.4199C207.629 29.4199 207.158 29.3009 206.76 29.063C206.361 28.8195 206.054 28.4736 205.838 28.0254C205.623 27.5716 205.515 27.0265 205.515 26.3901V25.8174C205.515 25.1478 205.625 24.5833 205.847 24.124C206.068 23.6647 206.367 23.3188 206.743 23.0864C207.125 22.8485 207.557 22.7295 208.038 22.7295C208.52 22.7295 208.946 22.8429 209.316 23.0698C209.687 23.2912 209.978 23.6287 210.188 24.0825C210.398 24.5363 210.503 25.1146 210.503 25.8174V26.3901L211.217 25.3359H204.784V26.4897H211.956V25.9253C211.956 25.0343 211.798 24.2541 211.483 23.5845C211.173 22.9093 210.725 22.3836 210.138 22.0073C209.557 21.631 208.86 21.4429 208.046 21.4429C207.238 21.4429 206.533 21.6393 205.93 22.0322C205.326 22.4251 204.859 22.9702 204.527 23.6675C204.2 24.3647 204.037 25.1755 204.037 26.0996V26.1079C204.037 27.0431 204.2 27.8566 204.527 28.5483C204.859 29.2345 205.329 29.7658 205.938 30.1421C206.552 30.5184 207.285 30.7065 208.138 30.7065Z" fill="#EBEBF5" fill-opacity="0.3"/>
<path fill-rule="evenodd" clip-rule="evenodd" d="M82.6049 10.5488C75.6093 10.5488 69.9382 16.2199 69.9382 23.2155C69.9382 30.2111 75.6093 35.8821 82.6049 35.8821H88.6049C95.6005 35.8821 101.272 30.2111 101.272 23.2155C101.272 16.2199 95.6005 10.5488 88.6049 10.5488H82.6049ZM86.0395 24.8302H82.6114L83.5421 23.218L85.1146 20.4941L86.4833 18.1232L87.4606 16.4303L87.4706 16.4129C87.4996 16.3627 87.5286 16.3124 87.5573 16.262C87.5843 16.2146 87.6109 16.1672 87.6369 16.1192C87.6935 16.0148 87.7473 15.9076 87.7876 15.7953C87.8286 15.6814 87.8537 15.5679 87.8599 15.4466C87.8661 15.3273 87.8555 15.2037 87.8244 15.0883C87.7933 14.973 87.7472 14.8576 87.6819 14.7574C87.6155 14.6553 87.5415 14.562 87.4469 14.4858C87.3586 14.4148 87.32 14.3926 87.2866 14.3734L87.2812 14.3702L87.2758 14.3671C87.2425 14.3478 87.2041 14.3256 87.0983 14.2846C86.985 14.2407 86.8671 14.2233 86.7456 14.2167C86.6262 14.2103 86.5033 14.2281 86.3878 14.2588C86.2723 14.2896 86.16 14.3422 86.0598 14.4072C85.9579 14.4732 85.8721 14.5517 85.7939 14.6441C85.7169 14.7352 85.651 14.8354 85.5888 14.9366C85.5603 14.9831 85.5326 15.0299 85.505 15.077C85.4755 15.1273 85.4463 15.1778 85.4172 15.2284L85.4076 15.2449L85.1146 15.7524L84.8216 15.2449L84.8121 15.2284C84.7829 15.1778 84.7537 15.1273 84.7242 15.077C84.6967 15.0299 84.6689 14.9831 84.6404 14.9366C84.5783 14.8354 84.5123 14.7352 84.4353 14.6441C84.3571 14.5517 84.2714 14.4732 84.1694 14.4072C84.0692 14.3422 83.957 14.2896 83.8415 14.2588C83.726 14.2281 83.6031 14.2103 83.4836 14.2167C83.3621 14.2233 83.2442 14.2407 83.131 14.2846C83.025 14.3256 82.9867 14.3478 82.9533 14.3672L82.9481 14.3702L82.9426 14.3734C82.9092 14.3926 82.8707 14.4148 82.7824 14.4858C82.6878 14.562 82.6137 14.6553 82.5473 14.7574C82.482 14.8576 82.436 14.973 82.4048 15.0883C82.3737 15.2037 82.3632 15.3273 82.3693 15.4466C82.3755 15.5679 82.4006 15.6814 82.4416 15.7953C82.4819 15.9076 82.5357 16.0148 82.5923 16.1192C82.6183 16.1672 82.645 16.2146 82.6719 16.262C82.7006 16.3124 82.7296 16.3627 82.7586 16.4129L82.7687 16.4303L83.746 18.1232L81.4892 22.0326L79.8742 24.8302H77.2729C77.2152 24.8302 77.1574 24.8302 77.0996 24.8305C77.0453 24.8309 76.991 24.8315 76.9367 24.833C76.8184 24.8362 76.6992 24.8431 76.5822 24.8642C76.4635 24.8856 76.3531 24.9206 76.2453 24.9756C76.1393 25.0297 76.038 25.1004 75.9539 25.1847C75.8699 25.2691 75.7933 25.3663 75.7394 25.4725C75.6844 25.5807 75.6407 25.6911 75.6222 25.8106C75.6048 25.9224 75.6049 25.9667 75.6049 26.0051L75.605 26.0112L75.6049 26.0172C75.6049 26.0556 75.6048 26.0998 75.6222 26.2117C75.6407 26.3312 75.6844 26.4416 75.7394 26.5497C75.7933 26.656 75.8699 26.7532 75.9539 26.8375C76.038 26.9219 76.1393 26.9925 76.2453 27.0466C76.3531 27.1017 76.4635 27.1366 76.5822 27.158C76.6992 27.1791 76.8184 27.186 76.9367 27.1893C76.991 27.1907 77.0453 27.1913 77.0996 27.1917C77.1577 27.1921 77.2158 27.1921 77.2739 27.1921H78.5107H81.248H87.6572C87.9713 26.3879 87.6878 25.7752 87.4128 25.4338C87.0754 25.0149 86.5983 24.8302 86.0395 24.8302ZM94.4706 25.4725C94.5255 25.5806 94.5692 25.691 94.5878 25.8106C94.6051 25.9224 94.605 25.9667 94.605 26.0052L94.605 26.0112L94.605 26.0172C94.605 26.0556 94.6051 26.0998 94.5878 26.2117C94.5692 26.3312 94.5255 26.4416 94.4706 26.5497C94.4166 26.656 94.3401 26.7532 94.256 26.8375C94.1719 26.9219 94.0706 26.9925 93.9647 27.0466C93.8569 27.1017 93.7464 27.1366 93.6278 27.158C93.5108 27.1791 93.3915 27.1861 93.2732 27.1893C93.2189 27.1907 93.1647 27.1913 93.1104 27.1917C93.0522 27.1921 92.9941 27.1921 92.936 27.1921H91.7186L92.3132 28.2222L92.6718 28.8433C92.701 28.8938 92.7301 28.9444 92.759 28.9951C92.786 29.0424 92.8126 29.0899 92.8386 29.1379C92.8952 29.2423 92.949 29.3495 92.9894 29.4618C93.0303 29.5757 93.0554 29.6892 93.0616 29.8105C93.0678 29.9298 93.0572 30.0533 93.0261 30.1688C92.995 30.2841 92.9489 30.3995 92.8836 30.4997C92.8172 30.6017 92.7431 30.6951 92.6485 30.7712C92.5601 30.8424 92.5216 30.8646 92.4882 30.8838L92.4829 30.8868L92.4775 30.89C92.4442 30.9093 92.4057 30.9315 92.2999 30.9725C92.1867 31.0164 92.0688 31.0338 91.9472 31.0403C91.8278 31.0468 91.7049 31.029 91.5894 30.9983C91.474 30.9675 91.3617 30.9149 91.2615 30.8499C91.1596 30.7839 91.0738 30.7054 90.9956 30.613C90.9186 30.5219 90.8526 30.4217 90.7905 30.3205C90.762 30.274 90.7342 30.2271 90.7067 30.1801C90.6774 30.13 90.6484 30.0798 90.6193 30.0296L90.2603 29.4076L88.9813 27.1921L87.6178 24.8302L86.6871 23.218L86.4085 22.7354C85.8952 21.8461 85.872 20.93 86.0689 20.1511C86.2027 19.6217 86.527 19.0995 86.857 18.7707L88.7401 22.0326L90.3551 24.8302H92.937C92.9948 24.8302 93.0526 24.8302 93.1104 24.8305C93.1647 24.8309 93.2189 24.8315 93.2732 24.833C93.3915 24.8361 93.5108 24.8432 93.6278 24.8642C93.7464 24.8856 93.8569 24.9206 93.9647 24.9756C94.0706 25.0297 94.1719 25.1004 94.256 25.1847C94.3401 25.2691 94.4166 25.3663 94.4706 25.4725ZM78.1936 27.7414C78.5799 27.6522 78.957 27.63 79.2881 27.6868C79.72 27.761 80.2011 27.9768 80.5234 28.447L79.969 29.4076L79.6099 30.0296C79.5809 30.0798 79.5519 30.13 79.5226 30.1801C79.495 30.2271 79.4672 30.274 79.4387 30.3205C79.3766 30.4217 79.3107 30.5219 79.2336 30.613C79.1555 30.7054 79.0697 30.7839 78.9678 30.8499C78.8676 30.9149 78.7553 30.9675 78.6398 30.9983C78.5243 31.029 78.4014 31.0468 78.282 31.0403C78.1604 31.0338 78.0425 31.0164 77.9293 30.9725C77.8236 30.9316 77.7851 30.9093 77.7518 30.89L77.7463 30.8868M78.1936 27.7414L77.916 28.2222ZM77.916 28.2222L77.5574 28.8433ZM77.5574 28.8433C77.5282 28.8938 77.4991 28.9444 77.4702 28.9951ZM77.4702 28.9951C77.4433 29.0424 77.4166 29.09 77.3906 29.1379ZM77.3906 29.1379C77.3341 29.2423 77.2802 29.3495 77.2399 29.4618ZM77.2399 29.4618C77.199 29.5757 77.1739 29.6892 77.1677 29.8105ZM77.1677 29.8105C77.1615 29.9298 77.172 30.0533 77.2032 30.1688ZM77.2032 30.1688C77.2343 30.2841 77.2803 30.3995 77.3457 30.4997ZM77.3457 30.4997C77.4121 30.6017 77.4861 30.6951 77.5807 30.7712ZM77.5807 30.7712C77.6691 30.8424 77.7075 30.8645 77.7409 30.8838Z" fill="white" fill-opacity="0.45"/>
<path fill-rule="evenodd" clip-rule="evenodd" d="M43.8477 35.0879C46.501 35.0879 47.834 33.7676 47.834 31.1523V17.8604C47.834 15.2451 46.501 13.9375 43.8477 13.9375H40.3896C39.3994 13.9375 39.082 13.7344 38.5234 13.0996L37.4951 11.957C36.8604 11.2588 36.2129 10.8779 34.9053 10.8779H29.8398C28.5322 10.8779 27.8848 11.2588 27.25 11.957L26.2344 13.0996C25.6758 13.7217 25.3584 13.9375 24.3682 13.9375H20.9863C18.333 13.9375 17 15.2451 17 17.8604V31.1523C17 33.7676 18.333 35.0879 20.9863 35.0879H43.8477ZM32.3486 30.7988C28.4732 30.7988 25.355 27.6891 25.355 23.7988C25.355 19.9085 28.4732 16.7988 32.3486 16.7988C36.2368 16.7988 39.355 19.9085 39.355 23.7988C39.355 27.6891 36.2368 30.7988 32.3486 30.7988ZM32.349 28.5488C34.9738 28.5488 37.105 26.4324 37.105 23.7988C37.105 21.1653 34.9738 19.0488 32.349 19.0488C29.7241 19.0488 27.605 21.1653 27.605 23.7988C27.605 26.4324 29.7362 28.5488 32.349 28.5488Z" fill="white" fill-opacity="0.45"/>
<defs>
<filter id="filter0_b_489_1541" x="-135.914" y="-135.365" width="661.828" height="318.828" filterUnits="userSpaceOnUse" color-interpolation-filters="sRGB">
<feFlood flood-opacity="0" result="BackgroundImageFix"/>
<feGaussianBlur in="BackgroundImageFix" stdDeviation="67.957"/>
<feComposite in2="SourceAlpha" operator="in" result="effect1_backgroundBlur_489_1541"/>
<feBlend mode="normal" in="SourceGraphic" in2="effect1_backgroundBlur_489_1541" result="shape"/>
</filter>
</defs>
</svg>
