<svg width="20" height="23" viewBox="0 0 20 23" fill="none" xmlns="http://www.w3.org/2000/svg">
<path d="M19.9902 5.6906C18.6902 5.6906 17.4881 5.25936 16.5264 4.5347C15.4223 3.70334 14.6254 2.48075 14.3449 1.07588C14.2736 0.729108 14.238 0.369 14.2336 0H10.516V10.1408L10.5116 15.6936C10.5116 17.1785 9.54101 18.4367 8.20091 18.8812C7.80912 19.0102 7.39062 19.0724 6.95431 19.0457C6.39334 19.0146 5.87244 18.8457 5.41387 18.5745C4.4433 17.9965 3.78884 16.9473 3.77103 15.7425C3.74431 13.8664 5.2625 12.3326 7.1413 12.3326C7.51083 12.3326 7.867 12.3948 8.20091 12.5015V9.73181V8.74041C7.84919 8.68706 7.49302 8.66038 7.12794 8.66038C5.07105 8.66038 3.14773 9.51397 1.77202 11.0522C0.734666 12.2126 0.111366 13.6975 0.0134187 15.2535C-0.111241 17.2941 0.636718 19.2369 2.08812 20.6684C2.30182 20.8774 2.52443 21.073 2.76039 21.2553C4.00254 22.2111 5.52517 22.7313 7.12794 22.7313C7.48857 22.7313 7.84919 22.7046 8.20091 22.6513C9.69683 22.429 11.077 21.7443 12.1678 20.6684C13.5079 19.348 14.2469 17.592 14.2558 15.7247L14.238 7.4289C14.8747 7.92238 15.5737 8.32695 16.3261 8.6426C17.4925 9.13608 18.7302 9.3806 19.9991 9.3806V6.68645V5.68615C20.0035 5.6906 19.9902 5.6906 19.9902 5.6906Z" fill="currentColor"/>
</svg>
