<svg width="169" height="206" viewBox="0 0 169 206" fill="none" xmlns="http://www.w3.org/2000/svg">
<path d="M14.7443 84.9693C14.7451 84.9697 14.746 84.9693 14.7464 84.9686C20.2339 73.2732 25.905 61.1824 28.7104 47.6521C28.9257 45.2829 31.498 19.3809 42.034 6.70208C43.3721 5.09448 46.3507 4.92589 52.2842 4.58722C58.6632 4.22295 67.3991 3.72622 76.9913 1.19592C81.4209 0.0263372 85.1446 0.638989 88.063 3.01576C93.0675 7.09035 95.2307 16.0961 94.4901 29.7772L94.457 30.3718C94.4405 30.5825 94.4209 30.7902 94.3908 30.9724C93.8715 34.2884 92.5064 37.4118 90.4428 40.0051L90.4248 40.0277C89.3877 41.3267 87.8494 42.132 86.1893 42.2148C83.1128 42.3699 78.3157 42.3277 73.5898 41.1476C71.1499 40.538 69.1193 38.7633 68.156 36.4018C67.2319 34.1349 67.6894 31.8213 68.6557 29.6568C69.2036 28.427 69.771 27.9439 70.188 28.0808C74.756 29.5906 77.8266 29.6478 78.0632 29.6237C79.1499 29.5921 80.0048 28.6859 79.9732 27.5977C79.9431 26.5109 79.0264 25.6138 77.9472 25.6875C77.9593 25.686 76.2314 25.6725 72.369 24.396C70.7856 23.8692 67.7602 23.5892 65.3007 27.5947C63.3952 30.6954 63.1062 34.4479 64.5105 37.889C65.9464 41.4082 68.9821 44.0544 72.6353 44.9681C76.5818 45.954 80.5105 46.2249 83.6396 46.2249C83.9061 46.2249 84.1649 46.2234 84.4178 46.2189C86.6575 46.1948 88.125 48.5535 87.1165 50.5524L85.9365 52.8916C83.0225 58.6686 79.0235 61.9756 72.5632 61.6311C56.6569 60.7821 56.3979 61.8463 55.1892 68.4258C51.2624 89.8198 52.5552 107.619 54.4532 117.491V117.491C55.983 125.446 67.4881 131.205 75.3802 129.378C83.4492 127.511 91.219 128.049 97.7175 129.717C106.089 131.866 115.605 131.52 123.419 127.825C135.689 122.021 147.437 121.962 156.195 123.394C164.164 124.697 169 132.25 169 140.325V186.914C169 193.399 165.945 199.802 159.819 201.928C154.246 203.862 148.423 204.541 142.866 204.796C134.179 205.196 126.591 203.611 120.983 201.831C114.556 199.791 107.584 200.016 101.226 202.261C94.9012 204.493 88.1206 205.62 80.8899 205.62C70.7706 205.618 59.7771 203.439 47.9571 199.073C43.8299 197.549 40.6811 195.803 38.1495 194.4C35.1483 192.736 32.9793 191.532 30.8269 191.526C25.315 191.493 20.0318 189.633 15.9529 186.286C12.3932 183.365 10.9106 180.699 10.6624 176.779C10.5059 174.285 9.92339 171.988 8.93 169.951C-8.42406 134.334 2.82768 110.356 14.7423 84.97C14.7426 84.9692 14.7435 84.9689 14.7443 84.9693V84.9693ZM54.5342 184.742C54.534 184.742 54.534 184.742 54.5342 184.742C63.1328 188.385 71.3118 189.602 78.3981 189.602C92.1944 189.602 101.856 184.992 102.458 184.698C103.433 184.221 103.836 183.042 103.361 182.067C102.885 181.092 101.704 180.684 100.73 181.159C100.521 181.26 79.7061 191.129 56.0714 181.117C55.0705 180.69 53.9145 181.162 53.4916 182.162C53.0657 183.163 53.5321 184.317 54.5342 184.742C54.5344 184.742 54.5343 184.742 54.5342 184.742V184.742ZM12.5031 151.422C12.8794 152.006 13.5131 152.325 14.1603 152.325C14.5261 152.325 14.8948 152.224 15.2245 152.012C16.1381 151.424 16.4045 150.206 15.816 149.291C10.7587 141.423 14.3274 123.762 14.3635 123.584C14.5833 122.519 13.9 121.479 12.8343 121.257C11.7716 121.033 10.7286 121.721 10.5073 122.787C10.3448 123.577 6.57744 142.203 12.5031 151.422Z" fill="white"/>
</svg>
