<svg width="21" height="22" viewBox="0 0 21 22" fill="none" xmlns="http://www.w3.org/2000/svg">
<circle cx="10.5" cy="11.1191" r="10.5" fill="#FA4B12"/>
<path d="M11.2734 4.98278L11.1598 13.3464H9.84162L9.72798 4.98278H11.2734ZM10.5007 16.71C10.2204 16.71 9.97988 16.6097 9.77912 16.4089C9.57836 16.2082 9.47798 15.9676 9.47798 15.6873C9.47798 15.407 9.57836 15.1665 9.77912 14.9657C9.97988 14.765 10.2204 14.6646 10.5007 14.6646C10.781 14.6646 11.0215 14.765 11.2223 14.9657C11.4231 15.1665 11.5234 15.407 11.5234 15.6873C11.5234 15.8729 11.4761 16.0434 11.3814 16.1987C11.2905 16.354 11.1674 16.479 11.0121 16.5737C10.8606 16.6646 10.6901 16.71 10.5007 16.71Z" fill="white"/>
</svg>
