<svg width="32" height="33" viewBox="0 0 32 33" fill="none" xmlns="http://www.w3.org/2000/svg">
<path opacity="0.2" d="M11.5595 16.2207C12.5968 18.3414 14.3158 20.0525 16.4412 21.0802C16.5967 21.1539 16.7687 21.1858 16.9403 21.1728C17.1119 21.1598 17.2771 21.1024 17.4198 21.0061L20.5492 18.9193C20.6877 18.827 20.8469 18.7707 21.0126 18.7555C21.1782 18.7403 21.3451 18.7667 21.498 18.8322L27.3526 21.3413C27.5515 21.4258 27.7175 21.5726 27.8257 21.7597C27.9339 21.9467 27.9783 22.1639 27.9524 22.3784C27.7673 23.8264 27.0608 25.1573 25.9652 26.1219C24.8695 27.0865 23.4598 27.6187 22 27.6188C17.4913 27.6188 13.1673 25.8277 9.97919 22.6396C6.79107 19.4515 5 15.1275 5 10.6188C5.00008 9.15899 5.53224 7.74929 6.49685 6.65362C7.46146 5.55795 8.79237 4.85145 10.2404 4.6664C10.4549 4.64044 10.672 4.6849 10.8591 4.79308C11.0461 4.90126 11.193 5.0673 11.2775 5.26618L13.7888 11.1259C13.8537 11.2775 13.8802 11.4428 13.8658 11.607C13.8514 11.7713 13.7967 11.9295 13.7064 12.0674L11.6268 15.2449C11.5322 15.3878 11.4762 15.5529 11.4644 15.7239C11.4526 15.8949 11.4854 16.0661 11.5595 16.2207V16.2207Z" fill="white"/>
<path d="M11.5595 16.2207C12.5968 18.3414 14.3158 20.0525 16.4412 21.0802C16.5967 21.1539 16.7687 21.1858 16.9403 21.1728C17.1119 21.1598 17.2771 21.1024 17.4198 21.0061L20.5492 18.9193C20.6877 18.827 20.8469 18.7707 21.0126 18.7555C21.1782 18.7403 21.3451 18.7667 21.498 18.8322L27.3526 21.3413C27.5515 21.4258 27.7175 21.5726 27.8257 21.7597C27.9339 21.9467 27.9783 22.1639 27.9524 22.3784C27.7673 23.8264 27.0608 25.1573 25.9652 26.1219C24.8695 27.0865 23.4598 27.6187 22 27.6188C17.4913 27.6188 13.1673 25.8277 9.97919 22.6396C6.79107 19.4515 5 15.1275 5 10.6188C5.00008 9.15899 5.53224 7.74929 6.49685 6.65362C7.46146 5.55795 8.79237 4.85145 10.2404 4.6664C10.4549 4.64044 10.672 4.6849 10.8591 4.79308C11.0461 4.90126 11.193 5.0673 11.2775 5.26618L13.7888 11.1259C13.8537 11.2775 13.8802 11.4428 13.8658 11.607C13.8514 11.7713 13.7967 11.9295 13.7064 12.0674L11.6268 15.2449C11.5322 15.3878 11.4762 15.5529 11.4644 15.7239C11.4526 15.8949 11.4854 16.0661 11.5595 16.2207V16.2207Z" stroke="currentColor" stroke-width="2" stroke-linecap="round" stroke-linejoin="round"/>
<path d="M19.9271 5.61914C21.6224 6.07506 23.1681 6.96842 24.4094 8.20973C25.6507 9.45104 26.544 10.9967 26.9999 12.692" stroke="currentColor" stroke-width="2" stroke-linecap="round" stroke-linejoin="round"/>
<path d="M18.8916 9.4834C19.9087 9.75695 20.8362 10.293 21.5809 11.0378C22.3257 11.7825 22.8617 12.71 23.1353 13.7271" stroke="currentColor" stroke-width="2" stroke-linecap="round" stroke-linejoin="round"/>
</svg>
