<svg width="136" height="25" viewBox="0 0 136 25" fill="none" xmlns="http://www.w3.org/2000/svg">
<path d="M12.865 3.6153C12.4796 2.95115 11.5205 2.95115 11.1351 3.6153L8.42107 8.29261C8.2307 8.62069 7.90165 8.84459 7.52659 8.90123L2.44027 9.66946C1.58599 9.79849 1.28633 10.8771 1.95164 11.4283L5.74073 14.5675C6.09147 14.8581 6.25639 15.3165 6.17119 15.7639L5.18002 20.969C5.02334 21.7919 5.88712 22.4312 6.62827 22.0409L11.4177 19.5191C11.7822 19.3272 12.2179 19.3272 12.5824 19.5191L17.3718 22.0409C18.113 22.4312 18.9768 21.7919 18.8201 20.969L17.8289 15.7639C17.7437 15.3165 17.9087 14.8581 18.2594 14.5675L22.0485 11.4283C22.7138 10.8771 22.4141 9.79849 21.5598 9.66946L16.4735 8.90123C16.0985 8.84459 15.7694 8.62069 15.579 8.29261L12.865 3.6153Z" fill="#FF8800"/>
<path d="M40.865 3.6153C40.4796 2.95115 39.5205 2.95115 39.1351 3.6153L36.4211 8.29261C36.2307 8.62069 35.9016 8.84459 35.5266 8.90123L30.4403 9.66946C29.586 9.79849 29.2863 10.8771 29.9516 11.4283L33.7407 14.5675C34.0915 14.8581 34.2564 15.3165 34.1712 15.7639L33.18 20.969C33.0233 21.7919 33.8871 22.4312 34.6283 22.0409L39.4177 19.5191C39.7822 19.3272 40.2179 19.3272 40.5824 19.5191L45.3718 22.0409C46.113 22.4312 46.9768 21.7919 46.8201 20.969L45.8289 15.7639C45.7437 15.3165 45.9087 14.8581 46.2594 14.5675L50.0485 11.4283C50.7138 10.8771 50.4141 9.79849 49.5598 9.66946L44.4735 8.90123C44.0985 8.84459 43.7694 8.62069 43.579 8.29261L40.865 3.6153Z" fill="#FF8800"/>
<path d="M68.865 3.6153C68.4796 2.95115 67.5205 2.95115 67.1351 3.6153L64.4211 8.29261C64.2307 8.62069 63.9016 8.84459 63.5266 8.90123L58.4403 9.66946C57.586 9.79849 57.2863 10.8771 57.9516 11.4283L61.7407 14.5675C62.0915 14.8581 62.2564 15.3165 62.1712 15.7639L61.18 20.969C61.0233 21.7919 61.8871 22.4312 62.6283 22.0409L67.4177 19.5191C67.7822 19.3272 68.2179 19.3272 68.5824 19.5191L73.3718 22.0409C74.113 22.4312 74.9768 21.7919 74.8201 20.969L73.8289 15.7639C73.7437 15.3165 73.9087 14.8581 74.2594 14.5675L78.0485 11.4283C78.7138 10.8771 78.4141 9.79849 77.5598 9.66946L72.4735 8.90123C72.0985 8.84459 71.7694 8.62069 71.579 8.29261L68.865 3.6153Z" fill="#FF8800"/>
<path d="M96.865 3.6153C96.4796 2.95115 95.5205 2.95115 95.1351 3.6153L92.4211 8.29261C92.2307 8.62069 91.9016 8.84459 91.5266 8.90123L86.4403 9.66946C85.586 9.79849 85.2863 10.8771 85.9516 11.4283L89.7407 14.5675C90.0915 14.8581 90.2564 15.3165 90.1712 15.7639L89.18 20.969C89.0233 21.7919 89.8871 22.4312 90.6283 22.0409L95.4177 19.5191C95.7822 19.3272 96.2179 19.3272 96.5824 19.5191L101.372 22.0409C102.113 22.4312 102.977 21.7919 102.82 20.969L101.829 15.7639C101.744 15.3165 101.909 14.8581 102.259 14.5675L106.048 11.4283C106.714 10.8771 106.414 9.79849 105.56 9.66946L100.474 8.90123C100.098 8.84459 99.7694 8.62069 99.579 8.29261L96.865 3.6153Z" fill="#FF8800"/>
<path d="M124.865 3.6153C124.48 2.95115 123.521 2.95115 123.135 3.6153L120.421 8.29261C120.231 8.62069 119.902 8.84459 119.527 8.90123L114.44 9.66946C113.586 9.79849 113.286 10.8771 113.952 11.4283L117.741 14.5675C118.091 14.8581 118.256 15.3165 118.171 15.7639L117.18 20.969C117.023 21.7919 117.887 22.4312 118.628 22.0409L123.418 19.5191C123.782 19.3272 124.218 19.3272 124.582 19.5191L129.372 22.0409C130.113 22.4312 130.977 21.7919 130.82 20.969L129.829 15.7639C129.744 15.3165 129.909 14.8581 130.259 14.5675L134.048 11.4283C134.714 10.8771 134.414 9.79849 133.56 9.66946L128.474 8.90123C128.098 8.84459 127.769 8.62069 127.579 8.29261L124.865 3.6153Z" fill="#FF8800"/>
</svg>
