<svg width="22" height="23" viewBox="0 0 22 23" fill="none" xmlns="http://www.w3.org/2000/svg">
<path fill-rule="evenodd" clip-rule="evenodd" d="M11 0.619629C4.925 0.619629 0 5.54463 0 11.6196C0 17.6946 4.925 22.6196 11 22.6196C17.075 22.6196 22 17.6946 22 11.6196C22 5.54463 17.075 0.619629 11 0.619629ZM15.768 9.75963C15.8558 9.65927 15.9226 9.54237 15.9646 9.4158C16.0065 9.28923 16.0227 9.15554 16.0123 9.02261C16.0018 8.88968 15.9648 8.76019 15.9036 8.64176C15.8423 8.52332 15.758 8.41833 15.6555 8.33297C15.5531 8.24761 15.4346 8.18359 15.3071 8.14469C15.1796 8.10579 15.0455 8.09279 14.9129 8.10646C14.7802 8.12012 14.6517 8.16018 14.5347 8.22426C14.4178 8.28835 14.3149 8.37517 14.232 8.47963L9.932 13.6386L7.707 11.4126C7.5184 11.2305 7.2658 11.1297 7.0036 11.132C6.7414 11.1342 6.49059 11.2394 6.30518 11.4248C6.11977 11.6102 6.0146 11.861 6.01233 12.1232C6.01005 12.3854 6.11084 12.638 6.293 12.8266L9.293 15.8266C9.39126 15.9248 9.50889 16.0015 9.63842 16.0517C9.76794 16.1019 9.9065 16.1246 10.0453 16.1183C10.184 16.112 10.32 16.0768 10.4444 16.0151C10.5688 15.9533 10.6791 15.8663 10.768 15.7596L15.768 9.75963Z" fill="white"/>
</svg>
