<svg width="32" height="33" viewBox="0 0 32 33" fill="none" xmlns="http://www.w3.org/2000/svg">
<path opacity="0.2" d="M16 3.61914C13.3478 3.61915 10.8043 4.67272 8.92894 6.54808C7.05358 8.42344 6.00001 10.967 6 13.6191C6 22.6191 16 29.6191 16 29.6191C16 29.6191 26 22.6191 26 13.6191C26 10.967 24.9464 8.42344 23.0711 6.54808C21.1957 4.67272 18.6522 3.61915 16 3.61914ZM16 17.6191C15.2089 17.6191 14.4355 17.3845 13.7777 16.945C13.1199 16.5055 12.6072 15.8808 12.3045 15.1499C12.0017 14.419 11.9225 13.6147 12.0769 12.8388C12.2312 12.0629 12.6122 11.3501 13.1716 10.7907C13.731 10.2313 14.4437 9.85034 15.2196 9.696C15.9956 9.54166 16.7998 9.62087 17.5307 9.92362C18.2616 10.2264 18.8864 10.7391 19.3259 11.3969C19.7654 12.0547 20 12.828 20 13.6191C20 14.68 19.5786 15.6974 18.8284 16.4476C18.0783 17.1977 17.0609 17.6191 16 17.6191V17.6191Z" fill="white"/>
<path d="M7 29.6191H25" stroke="currentColor" stroke-width="2" stroke-linecap="round" stroke-linejoin="round"/>
<path d="M16 17.6191C18.2091 17.6191 20 15.8283 20 13.6191C20 11.41 18.2091 9.61914 16 9.61914C13.7909 9.61914 12 11.41 12 13.6191C12 15.8283 13.7909 17.6191 16 17.6191Z" stroke="currentColor" stroke-width="2" stroke-linecap="round" stroke-linejoin="round"/>
<path d="M26 13.6191C26 22.6191 16 29.6191 16 29.6191C16 29.6191 6 22.6191 6 13.6191C6 10.967 7.05357 8.42344 8.92893 6.54807C10.8043 4.67271 13.3478 3.61914 16 3.61914C18.6522 3.61914 21.1957 4.67271 23.0711 6.54807C24.9464 8.42344 26 10.967 26 13.6191V13.6191Z" stroke="currentColor" stroke-width="2" stroke-linecap="round" stroke-linejoin="round"/>
</svg>
