<svg width="20" height="21" viewBox="0 0 20 21" fill="none" xmlns="http://www.w3.org/2000/svg">
<g clip-path="url(#clip0_509_3763)">
<path d="M19.9804 6.18474C19.9336 5.12206 19.7617 4.39148 19.5156 3.75843C19.2616 3.08645 18.8709 2.48483 18.359 1.9847C17.8589 1.47679 17.2533 1.08212 16.5891 0.832134C15.9524 0.585962 15.2256 0.414114 14.163 0.367261C13.0923 0.316439 12.7525 0.304688 10.0371 0.304688C7.32172 0.304688 6.98185 0.316439 5.9152 0.363293C4.85253 0.410146 4.12195 0.582146 3.48904 0.828166C2.81692 1.08212 2.2153 1.47282 1.71517 1.9847C1.20726 2.48483 0.812742 3.09042 0.562602 3.75461C0.31643 4.39148 0.144583 5.1181 0.0977294 6.18077C0.0469078 7.25139 0.0351562 7.59127 0.0351562 10.3066C0.0351562 13.022 0.0469078 13.3619 0.0937614 14.4285C0.140615 15.4912 0.312615 16.2218 0.558787 16.8549C0.812742 17.5268 1.20726 18.1285 1.71517 18.6286C2.2153 19.1365 2.82088 19.5312 3.48507 19.7811C4.12195 20.0273 4.84856 20.1992 5.91139 20.246C6.97788 20.293 7.31791 20.3046 10.0333 20.3046C12.7486 20.3046 13.0885 20.293 14.1552 20.246C15.2178 20.1992 15.9484 20.0273 16.5813 19.7811C17.9254 19.2615 18.9881 18.1988 19.5078 16.8549C19.7538 16.218 19.9258 15.4912 19.9726 14.4285C20.0195 13.3619 20.0313 13.022 20.0313 10.3066C20.0313 7.59127 20.0273 7.25139 19.9804 6.18474ZM18.1794 14.3504C18.1364 15.3272 17.9723 15.8546 17.8355 16.2062C17.4995 17.0775 16.808 17.769 15.9367 18.1051C15.585 18.2418 15.0538 18.4059 14.0808 18.4488C13.026 18.4958 12.7096 18.5074 10.0411 18.5074C7.37255 18.5074 7.0522 18.4958 6.00113 18.4488C5.02437 18.4059 4.49693 18.2418 4.1453 18.1051C3.71171 17.9449 3.31704 17.6909 2.9967 17.3588C2.6646 17.0345 2.41065 16.6438 2.2504 16.2102C2.11365 15.8586 1.94959 15.3272 1.9067 14.3544C1.8597 13.2995 1.8481 12.9829 1.8481 10.3144C1.8481 7.6459 1.8597 7.32556 1.9067 6.27463C1.94959 5.29788 2.11365 4.77043 2.2504 4.4188C2.41065 3.98506 2.6646 3.59055 3.00067 3.27005C3.32483 2.93795 3.71553 2.684 4.14927 2.5239C4.5009 2.38716 5.03231 2.22309 6.00509 2.18005C7.05999 2.1332 7.37651 2.12145 10.0449 2.12145C12.7174 2.12145 13.0337 2.1332 14.0848 2.18005C15.0616 2.22309 15.589 2.38716 15.9406 2.5239C16.3742 2.684 16.7689 2.93795 17.0892 3.27005C17.4213 3.59436 17.6753 3.98506 17.8355 4.4188C17.9723 4.77043 18.1364 5.3017 18.1794 6.27463C18.2262 7.32953 18.238 7.6459 18.238 10.3144C18.238 12.9829 18.2262 13.2955 18.1794 14.3504Z" fill="currentColor"/>
<path d="M10.0371 5.16895C7.20074 5.16895 4.89941 7.47011 4.89941 10.3067C4.89941 13.1432 7.20074 15.4444 10.0371 15.4444C12.8737 15.4444 15.1749 13.1432 15.1749 10.3067C15.1749 7.47011 12.8737 5.16895 10.0371 5.16895ZM10.0371 13.6394C8.19702 13.6394 6.70442 12.1469 6.70442 10.3067C6.70442 8.4664 8.19702 6.97395 10.0371 6.97395C11.8774 6.97395 13.3698 8.4664 13.3698 10.3067C13.3698 12.1469 11.8774 13.6394 10.0371 13.6394V13.6394Z" fill="currentColor"/>
<path d="M16.5775 4.96603C16.5775 5.62839 16.0404 6.16545 15.3779 6.16545C14.7155 6.16545 14.1785 5.62839 14.1785 4.96603C14.1785 4.30351 14.7155 3.7666 15.3779 3.7666C16.0404 3.7666 16.5775 4.30351 16.5775 4.96603V4.96603Z" fill="currentColor"/>
</g>
<defs>
<clipPath id="clip0_509_3763">
<rect width="20" height="20" fill="currentColor" transform="translate(0 0.304688)"/>
</clipPath>
</defs>
</svg>
