<svg width="70" height="12" viewBox="0 0 70 12" fill="none" xmlns="http://www.w3.org/2000/svg">
<rect opacity="0.35" x="45.8333" y="0.833496" width="21" height="10.3333" rx="2.16667" stroke="white"/>
<path opacity="0.4" d="M68.333 4V8C69.1377 7.66122 69.661 6.87313 69.661 6C69.661 5.12687 69.1377 4.33878 68.333 4" fill="white"/>
<rect x="47.3333" y="2.3335" width="18" height="7.33333" rx="1.33333" fill="white"/>
<path fill-rule="evenodd" clip-rule="evenodd" d="M30.6671 3.28448C32.8918 3.28457 35.0315 4.13869 36.6438 5.67028C36.7652 5.78852 36.9593 5.78703 37.0789 5.66693L38.2395 4.4966C38.3 4.43569 38.3338 4.35318 38.3333 4.26733C38.3328 4.18148 38.2981 4.09937 38.2368 4.03917C34.0049 -0.0130576 27.3286 -0.0130576 23.0967 4.03917C23.0354 4.09933 23.0006 4.18141 23 4.26726C22.9994 4.35311 23.0331 4.43565 23.0936 4.4966L24.2546 5.66693C24.3741 5.78721 24.5683 5.78871 24.6897 5.67028C26.3022 4.13858 28.4421 3.28447 30.6671 3.28448ZM30.6671 7.09206C31.8894 7.09199 33.0681 7.54594 33.9742 8.36571C34.0968 8.48206 34.2898 8.47954 34.4093 8.36003L35.5685 7.1897C35.6296 7.12831 35.6635 7.04504 35.6626 6.9585C35.6617 6.87196 35.6261 6.78939 35.5639 6.72926C32.8047 4.16485 28.5318 4.16485 25.7726 6.72926C25.7103 6.78939 25.6747 6.87201 25.6739 6.95857C25.6731 7.04513 25.7071 7.1284 25.7683 7.1897L26.9272 8.36003C27.0467 8.47954 27.2397 8.48206 27.3623 8.36571C28.2677 7.54648 29.4455 7.09257 30.6671 7.09206ZM32.9893 9.6539C32.9911 9.74068 32.9569 9.82434 32.8949 9.88514L30.8896 11.9071C30.8308 11.9666 30.7507 12 30.6671 12C30.5834 12 30.5033 11.9666 30.4445 11.9071L28.4389 9.88514C28.3769 9.82429 28.3428 9.7406 28.3447 9.65383C28.3465 9.56705 28.3841 9.48487 28.4486 9.4267C29.7292 8.34443 31.6049 8.34443 32.8856 9.4267C32.95 9.48492 32.9875 9.56712 32.9893 9.6539Z" fill="white"/>
<path fill-rule="evenodd" clip-rule="evenodd" d="M16 1H15C14.4477 1 14 1.44772 14 2V10.6667C14 11.219 14.4477 11.6667 15 11.6667H16C16.5523 11.6667 17 11.219 17 10.6667V2C17 1.44772 16.5523 1 16 1ZM10.3333 3.33333H11.3333C11.8856 3.33333 12.3333 3.78105 12.3333 4.33333V10.6667C12.3333 11.219 11.8856 11.6667 11.3333 11.6667H10.3333C9.78105 11.6667 9.33333 11.219 9.33333 10.6667V4.33333C9.33333 3.78105 9.78105 3.33333 10.3333 3.33333ZM6.66667 5.66667H5.66667C5.11438 5.66667 4.66667 6.11438 4.66667 6.66667V10.6667C4.66667 11.219 5.11438 11.6667 5.66667 11.6667H6.66667C7.21895 11.6667 7.66667 11.219 7.66667 10.6667V6.66667C7.66667 6.11438 7.21895 5.66667 6.66667 5.66667ZM2 7.66667H1C0.447715 7.66667 0 8.11438 0 8.66667V10.6667C0 11.219 0.447715 11.6667 1 11.6667H2C2.55228 11.6667 3 11.219 3 10.6667V8.66667C3 8.11438 2.55228 7.66667 2 7.66667Z" fill="white"/>
</svg>
