<svg width="31" height="12" viewBox="0 0 31 12" fill="none" xmlns="http://www.w3.org/2000/svg">
<path d="M4.76465 0.16748C4.00781 0.16748 3.33154 0.328613 2.73584 0.650879C2.14502 0.968262 1.68115 1.40771 1.34424 1.96924C1.01221 2.52588 0.846191 3.16309 0.846191 3.88086V3.89551C0.846191 4.55957 0.992676 5.15527 1.28564 5.68262C1.5835 6.20996 1.99121 6.625 2.50879 6.92773C3.02637 7.23047 3.62207 7.38184 4.2959 7.38184C4.78418 7.38184 5.20898 7.30859 5.57031 7.16211C5.93652 7.01562 6.24414 6.82275 6.49316 6.5835C6.74219 6.34424 6.93018 6.08545 7.05713 5.80713H7.31348V3.85889H6.87402V3.87354C6.87402 4.26904 6.78125 4.62305 6.5957 4.93555C6.41016 5.24805 6.15869 5.49219 5.84131 5.66797C5.52393 5.84375 5.16504 5.93164 4.76465 5.93164C4.36426 5.93164 4.00781 5.84131 3.69531 5.66064C3.38281 5.47998 3.13623 5.2334 2.95557 4.9209C2.7749 4.60352 2.68457 4.23975 2.68457 3.82959V3.81494C2.68457 3.41943 2.77979 3.06299 2.97021 2.74561C3.16064 2.42334 3.41455 2.16943 3.73193 1.98389C4.04932 1.79834 4.39844 1.70557 4.7793 1.70557C5.1748 1.70557 5.52881 1.80078 5.84131 1.99121C6.15869 2.18164 6.41016 2.44043 6.5957 2.76758C6.78125 3.09473 6.87402 3.4585 6.87402 3.85889L7.20361 5.62402C7.20361 5.69238 7.20361 5.76318 7.20361 5.83643C7.20361 5.90479 7.20117 5.97559 7.19629 6.04883C7.17188 6.72266 7.06934 7.33789 6.88867 7.89453C6.71289 8.44629 6.44678 8.88818 6.09033 9.22021C5.73877 9.54736 5.28467 9.71094 4.72803 9.71094C4.42041 9.71094 4.14209 9.66211 3.89307 9.56445C3.64893 9.46191 3.43896 9.31787 3.26318 9.13232C3.09229 8.94678 2.96045 8.73193 2.86768 8.48779L2.83838 8.41455H0.985352L1 8.49512C1.11719 9.03223 1.34424 9.51074 1.68115 9.93066C2.02295 10.3457 2.45264 10.6729 2.97021 10.9121C3.49268 11.1465 4.07861 11.2637 4.72803 11.2637C5.61182 11.2637 6.37109 11.0391 7.00586 10.5898C7.64551 10.1357 8.13623 9.48633 8.47803 8.6416C8.81982 7.79688 8.99072 6.78125 8.99072 5.59473V5.58008C8.99072 4.62305 8.87842 3.80518 8.65381 3.12646C8.4292 2.44287 8.11914 1.88379 7.72363 1.44922C7.33301 1.00977 6.88379 0.6875 6.37598 0.482422C5.86816 0.272461 5.33105 0.16748 4.76465 0.16748ZM12.3159 9.5791C12.6528 9.5791 12.9312 9.46924 13.1509 9.24951C13.3706 9.0249 13.4805 8.75146 13.4805 8.4292C13.4805 8.10205 13.3706 7.82861 13.1509 7.60889C12.9312 7.38428 12.6528 7.27197 12.3159 7.27197C11.9839 7.27197 11.7056 7.38428 11.481 7.60889C11.2612 7.82861 11.1514 8.10205 11.1514 8.4292C11.1514 8.75146 11.2612 9.0249 11.481 9.24951C11.7056 9.46924 11.9839 9.5791 12.3159 9.5791ZM12.3159 4.14453C12.6528 4.14453 12.9312 4.03467 13.1509 3.81494C13.3706 3.59033 13.4805 3.31689 13.4805 2.99463C13.4805 2.66748 13.3706 2.39404 13.1509 2.17432C12.9312 1.94971 12.6528 1.8374 12.3159 1.8374C11.9839 1.8374 11.7056 1.94971 11.481 2.17432C11.2612 2.39404 11.1514 2.66748 11.1514 2.99463C11.1514 3.31689 11.2612 3.59033 11.481 3.81494C11.7056 4.03467 11.9839 4.14453 12.3159 4.14453ZM20.7681 11H22.5698V8.97119H23.998V7.41113H22.5698V0.431152H19.9111C19.6182 0.865723 19.3252 1.3125 19.0322 1.77148C18.7441 2.22559 18.4536 2.68701 18.1606 3.15576C17.8726 3.61963 17.582 4.09082 17.2891 4.56934C17.001 5.04297 16.7153 5.51904 16.4321 5.99756C16.1538 6.47607 15.8755 6.95215 15.5972 7.42578V8.97119H20.7681V11ZM17.355 7.45508V7.34521C17.5601 6.98389 17.7725 6.62012 17.9922 6.25391C18.2119 5.88281 18.4341 5.51416 18.6587 5.14795C18.8833 4.77686 19.1104 4.4082 19.3398 4.04199C19.5693 3.67578 19.7964 3.31689 20.021 2.96533C20.2505 2.61377 20.4727 2.27197 20.6875 1.93994H20.7974V7.45508H17.355ZM28.3706 11H30.2529V0.431152H28.3706L25.6094 2.37207V4.14453L28.2388 2.2915H28.3706V11Z" fill="white"/>
</svg>
