<svg width="200" height="24" viewBox="0 0 200 24" fill="none" xmlns="http://www.w3.org/2000/svg">
<path fill-rule="evenodd" clip-rule="evenodd" d="M120.447 17.9421C120.757 18.4043 120.315 18.0235 120.716 18.2175C120.788 18.2522 120.914 18.2811 121.038 18.2858C121.246 18.2941 121.257 18.1625 121.777 18.2345C120.643 18.6315 115.569 18.9235 113.816 19.0334C112.762 19.0993 112.661 18.8129 111.324 19.0626C109.816 19.3443 101.7 19.7106 100.226 19.5063C101.317 17.8781 103.899 18.1764 106.092 18.0926C108.427 18.0033 110.752 17.9674 113.081 17.8484C115.391 17.7307 117.649 17.5395 119.902 17.4656C120.718 17.4387 120.718 17.5667 121.434 17.4822L126.397 17.4209C125.822 17.7911 125.734 17.526 125.233 17.6398C124.604 17.7832 124.878 17.9895 123.842 17.9294C122.82 17.8706 121.518 17.7196 120.447 17.9417V17.9421ZM134.13 17.1973C133.899 17.7184 134.713 17.5869 133.84 17.8935L132.014 17.9784C129.747 18.123 130.215 18.5114 129.582 17.4272C129.161 17.4087 128.953 17.4118 128.527 17.5323C128.31 17.594 127.707 18.0045 127.446 17.5462C127.187 17.0902 130.587 17.2297 132.133 16.9784L134.582 16.6659C135.067 16.6078 135.53 16.5782 135.975 16.5493C136.546 16.5126 137.125 16.3933 137.517 16.69C135.726 17.3431 135.246 16.9065 134.13 17.1977V17.1973ZM80.4334 17.4067C81.0328 17.4043 81.7128 17.2799 82.2896 17.3435C83.4872 17.4755 82.2742 17.6173 83.697 17.3087L91.5331 17.0543C92.37 17.0246 92.4822 16.8579 92.9749 17.0705C93.9599 17.4952 93.4209 17.2253 94.2997 17.0483C95.3491 16.837 96.7201 16.7433 97.6703 17.0555C97.7086 17.0681 97.7446 17.0867 97.7849 17.0977L98.342 17.1791C99.7762 17.236 103.437 16.4442 105.818 16.4671L104.158 17.0527C105.684 17.0163 121.376 16.3158 122.649 16.093C124.319 15.801 126.953 15.7496 128.773 15.8136C128.496 16.2712 128.383 16.1886 128.092 16.2376L126.517 16.4462C123.081 16.8057 104.888 17.7133 104.173 17.3391C103.427 16.9488 104.019 16.6848 102.918 16.8784C102.155 17.0124 102.646 17.2558 101.822 17.2577C100.748 17.2605 99.7351 17.3332 98.9015 17.6465C97.3681 18.2226 94.3281 17.9053 92.4431 17.9634C90.3375 18.0286 88.447 18.1463 86.2213 18.0902L81.755 17.9614L80.4342 17.4063L80.4334 17.4067ZM196.597 4.89211C196.267 4.82652 196.458 5.01143 196.225 4.67599C196.264 4.64951 196.319 4.63015 196.354 4.61712L197.267 4.37294C196.623 4.03157 195.288 4.07701 194.429 3.99048C193.296 3.87669 192.668 3.45945 191.764 3.37609L193.712 3.29983C193.346 3.06158 185.824 2.54202 184.158 2.53016C183.574 2.52582 182.415 2.33419 181.979 1.99914C180.992 1.23935 181.333 1.4539 180.1 1.44718C177.579 1.43335 178.104 1.59455 177.322 1.05405C176.808 0.699243 176.901 0.946974 176.423 0.38948C175.931 0.6139 176.358 0.590589 175.685 0.677512C175.462 0.706355 174.998 0.681068 174.756 0.669215C174.158 0.640372 173.521 0.621802 172.932 0.563326C171.477 0.418322 172.165 0.565697 171.598 0.587428C170.545 0.627334 169.477 0.196668 168.665 0.220374C167.713 0.248427 167.775 0.0967059 167.128 0.0133385C166.479 -0.070424 165.007 0.366959 163.999 0.377231C161.429 0.403308 159.489 0.605208 156.959 0.817775C155.291 0.958037 151.543 1.42624 150.142 1.26108C149.844 1.53015 149.843 1.46891 149.3 1.51474C149.023 1.53805 148.697 1.53371 148.403 1.55465C147.783 1.5989 147.236 1.69135 146.561 1.67595C145.119 1.8652 143.337 1.9055 141.857 2.04814L134.392 2.69492C132.289 2.9071 130.303 2.68031 128.193 3.13112C127.786 3.21804 127.997 3.10781 127.734 3.28008C127.038 3.73563 128.216 2.80634 127.579 3.43535C127.562 3.45195 127.528 3.55547 127.517 3.53057C127.505 3.50489 127.483 3.60051 127.46 3.63212C127.063 3.15483 126.634 3.40612 126.078 3.40809C125.142 3.41086 125.833 3.02997 124.953 3.37016C124.149 3.68111 123.132 3.60683 121.996 3.61868C121.198 3.62658 121.195 3.70798 120.47 3.64476C118.911 3.50924 118.789 3.8518 117.428 4.0051C116.247 4.13825 115.357 4.03829 114.198 4.26389C113.699 4.36069 113.122 4.32079 112.599 4.33857C109.331 4.4488 106.067 5.00511 102.647 4.772C101.385 4.68586 97.6841 5.0383 96.3297 5.19674C93.0436 5.58197 84.9088 4.98733 82.582 5.45079C82.0407 5.55865 81.0071 5.34372 80.5598 5.41681C79.8479 5.53297 78.4326 5.5472 77.7321 5.88857C78.4018 6.13432 78.0612 5.51124 78.4812 6.17265C77.8751 6.19043 77.2793 6.19912 76.6752 6.20307C75.9118 6.20821 75.576 6.11773 75.0102 6.07822V6.48241C73.6565 6.5887 71.8339 6.2813 70.6217 6.26747C66.7564 6.22322 61.3826 6.48044 57.729 6.96879L57.5773 6.4832C55.5998 7.194 54.3556 6.8309 52.4243 7.28606C52.6464 7.74201 52.4571 7.30265 52.6547 7.5654C52.9269 7.92771 52.8064 7.36389 52.7297 7.71791L45.9051 8.69777L45.7534 8.26829L44.8956 8.8408C44.5645 8.96249 43.9833 9.01899 43.6285 9.08814C42.7126 9.26673 42.0556 9.38289 41.0536 9.49786C40.2503 9.58992 40.534 9.68949 39.8216 9.78906C39.2479 9.86926 38.9275 9.79538 38.5928 9.79972C37.6663 9.81197 37.564 10.2936 36.3565 10.4003C35.1487 10.507 35.1685 10.2628 33.9033 10.6709C33.5193 10.7946 33.771 10.716 33.3929 10.7772C33.3518 10.7839 33.1431 10.8148 33.0957 10.8282L31.6655 11.1569C31.1901 11.2462 31.0605 11.3217 30.5773 11.3138C29.6097 11.298 28.3252 11.5773 27.2774 11.1948C27.0218 10.605 27.4027 11.087 27.2596 10.6172C26.9135 10.6875 26.5899 10.8029 26.3418 10.8282C26.0281 10.8602 25.84 10.7954 25.4761 10.9293C25.7436 11.4785 25.5555 11.2826 25.9728 11.2383C26.2892 11.2047 26.3872 11.0226 26.6393 11.1952C25.9238 12.1486 22.3805 12.1885 21.2343 12.4296C20.1509 12.6571 19.6807 12.588 18.6779 12.3039C18.0947 12.1388 18.0023 12.0751 17.3144 12.2755C17.0201 12.3612 16.6443 12.7531 16.1184 12.5742C15.5475 12.3802 15.8071 11.9807 14.9955 12.2506C14.5577 12.3964 14.212 12.5481 13.8268 12.5481C12.9058 12.5485 11.5569 12.5149 10.4885 12.6362C9.04523 12.8002 6.125 12.2087 4.71368 13.0479L4.52916 13.1743C5.14671 13.5777 5.75162 13.6137 6.64338 13.6279C7.67697 13.6445 7.9006 13.8863 8.76431 13.9855C9.54346 14.0752 10.1776 14.0827 10.9524 14.1589C11.6944 14.232 12.6336 13.9768 13.0947 14.6137C11.4502 14.9736 8.26924 14.5864 6.34626 14.7295C5.56869 14.7871 5.65561 14.9582 4.67733 14.8701C3.0973 14.7279 1.66583 14.4711 0.00756836 14.4169C0.354077 15.187 0.823463 15.1495 1.76579 15.3288C1.39044 15.4987 1.64212 15.3415 1.33038 15.4249L0.842823 15.5904C1.1032 15.895 1.4584 15.9875 1.86694 16.1115C1.9025 16.1222 1.94161 16.1376 1.97678 16.1483C2.9843 16.449 7.13331 16.057 7.7959 16.5671L4.95943 16.4928C5.172 17.0282 5.89939 17.4126 6.43871 17.6248C7.07799 17.8765 7.6908 18.2491 8.15861 18.3143C10.1452 18.59 11.9311 17.6438 12.73 18.1677C12.3258 18.3664 11.5771 18.2965 10.9899 18.289L11.4965 18.4723C11.5621 18.4857 12.0109 18.5189 12.0951 18.5213C13.0137 18.5458 14.3634 18.7129 15.1872 18.4371C15.2267 18.4553 15.2851 18.4458 15.3045 18.4956C15.4629 18.9053 15.4926 18.5754 15.5293 18.5829L20.8937 18.1657C21.2497 18.1645 21.6112 18.1448 21.9553 18.142C23.0545 18.1337 22.9676 18.3739 23.1667 18.6213L21.5175 18.9251L22.2572 19.3799C22.2137 19.4174 22.1414 19.4123 22.1205 19.4842L21.8024 19.6837C22.627 19.6928 21.9241 19.5332 22.8178 19.5944L25.1272 19.2135C25.4453 19.0527 25.5295 18.8441 26.064 18.7323C26.5081 18.6394 26.8108 18.6833 27.2687 18.5995C28.8171 18.3151 28.4888 18.5545 29.4544 18.3486C31.5398 17.9041 33.7366 18.1558 36.1392 17.1977C36.9559 16.8721 39.9639 16.8923 40.6747 17.0187C38.8592 17.4596 36.9753 17.5679 35.0373 17.9069C33.4731 18.1807 33.7982 18.4743 32.4142 18.526L30.3284 18.7813C30.2763 18.7935 29.976 18.8927 29.9539 18.9034C29.6326 19.0602 29.8207 18.9393 29.586 19.1547C30.2324 19.4375 30.5817 19.2819 31.4185 19.3166C31.1893 19.3775 31.3079 19.3332 30.9626 19.4127C29.7583 19.6896 29.9625 19.4929 29.2739 19.6142L29.1123 19.6584C28.6318 19.7212 28.8025 19.1768 27.9151 19.7386C27.793 19.8157 27.6587 19.8955 27.4643 20.0144C26.081 20.8643 26.1383 20.5589 23.8147 20.9066C22.1272 21.159 20.3006 21.3329 18.6187 21.5703L18.4302 21.7868C18.4148 21.8074 18.3508 21.9188 18.3152 21.9548C17.0193 21.7537 17.9292 21.8046 17.4969 21.5917C17.4792 21.583 17.0133 21.4617 16.7992 21.4155C15.8711 21.2839 13.3151 21.6446 12.3333 22.1737C11.7999 22.4613 11.5269 22.4277 11.2973 22.9184C12.6853 23.4376 15.455 22.6253 16.8478 22.3056C18.3784 21.9544 20.7032 21.7438 22.3998 21.4613C28.91 20.3783 35.5004 19.9381 41.9888 19.0053C44.6771 18.6189 47.638 18.1776 50.3236 17.9843C52.177 17.8512 54.5496 17.8923 56.1853 17.6149C55.8582 17.9105 54.9171 17.9476 54.4082 18.1625C53.8874 18.3822 52.9052 18.4265 52.695 18.9456C53.2754 18.7418 53.9621 18.8125 54.6326 18.7362C56.5109 18.5217 58.1411 18.3166 60.0819 18.3664C59.5951 18.8295 57.3169 18.9543 56.3707 18.9784C54.8799 19.0168 53.642 19.3384 52.2627 19.4285C50.9624 19.5134 49.1177 19.449 47.9083 19.6884C46.5961 19.948 46.7356 19.905 45.5815 19.6687C45.3717 19.6256 45.3733 19.6288 45.1564 19.6296C44.7964 19.6308 44.6131 19.7007 44.2227 19.7631C42.6767 20.0093 39.5466 19.7837 38.2408 20.6434C36.8702 21.5458 32.4679 21.5213 30.4944 21.8864L29.0996 22.1065C28.7172 22.2183 28.9613 22.097 28.714 22.2898C31.4956 22.3684 40.3949 21.0966 43.8237 20.7568L48.8786 20.3838C52.2007 20.0456 55.4473 19.6904 58.7504 19.34C61.2032 19.0796 64.0811 19.0693 66.3435 18.7995C67.2084 18.6963 68.3862 18.7015 67.306 17.8832C68.5091 17.4735 70.1373 17.7287 71.3713 17.7449C71.9999 17.7532 72.2662 17.6181 72.8853 17.573L77.9178 17.4735C78.6823 17.4253 78.8727 17.3459 78.9371 17.9974C78.3429 17.7824 77.2224 17.7959 76.4578 17.9128C75.2769 18.0934 75.2129 17.9966 74.1105 17.9796C72.8762 17.9606 69.9667 17.9365 69.0717 18.2795C69.3519 18.558 69.095 18.4178 69.5577 18.5284C70.1184 18.6624 70.8055 18.5233 71.3728 18.5256L77.4954 18.223C77.7269 18.0883 77.5776 18.1116 77.8842 18.0329C78.0679 18.5411 77.7186 18.1321 77.8913 18.4956C80.0525 18.5071 96.826 18.3435 97.295 18.5205L97.0678 19.4822C97.0555 19.4569 97.02 19.5608 96.9919 19.5972C95.1005 19.6256 92.9911 19.7208 91.2111 19.8402C89.4414 19.9591 87.1956 19.7524 85.3193 19.7821C81.4318 19.8433 77.8755 19.888 73.9501 19.8939C73.7419 20.2266 73.6688 19.4194 73.7901 20.4411C73.7889 20.4387 73.6471 20.1598 73.6396 20.1464C73.6269 20.1242 73.5803 20.1001 73.5704 20.0413C73.5601 19.98 73.5198 19.9702 73.4953 19.9342C71.0287 19.9299 62.9978 19.9698 60.362 20.6288C59.053 20.9559 57.5919 20.9401 56.145 21.1179C53.3497 21.4617 50.7025 21.8513 47.7795 22.1543C46.1848 22.3198 40.0792 22.7975 39.3779 23.1531C40.7608 23.161 42.3337 22.8228 43.6423 22.7288C45.2421 22.6134 46.5159 22.7489 48.0047 22.6185C49.4282 22.4941 50.6475 22.2752 52.2655 22.1895C53.4078 22.129 55.0087 22.1108 56.4129 21.9805C57.1925 21.9081 57.8088 21.7276 58.4951 21.664C62.2158 21.3194 65.9468 21.2657 69.713 21.1725C71.103 21.1381 72.4286 20.9603 73.8766 20.95L73.3906 20.5209C74.7075 20.6063 76.994 19.8599 80.26 20.4399C80.2335 20.4589 80.19 20.4743 80.1715 20.4802C80.1521 20.4862 80.1023 20.5099 80.077 20.5162C79.109 20.7588 77.6677 20.6189 76.6767 20.6126C75.0382 20.6023 74.2295 20.3273 73.8636 20.9528L94.1092 21.2337C99.9323 21.3625 105.895 20.4565 110.452 20.4704C111.487 20.4735 112.648 20.487 113.39 20.5004C114.076 20.5126 114.223 20.3214 114.878 20.242C115.397 20.1788 115.961 20.1969 116.46 20.1562C119.072 19.9429 120.329 20.1057 122.913 20.1875C124.074 20.2242 124.965 20.0673 126.093 20.0393C128.282 19.9848 130.547 19.9338 132.713 19.7449C134.746 19.5679 136.97 19.2827 138.985 19.2218C145.355 19.0286 151.24 18.0385 157.473 17.6295C158.596 17.5557 159.748 17.4359 160.808 17.3913C161.922 17.3443 162.785 17.1779 163.839 17.1862C164.793 17.1937 166.102 16.85 166.665 16.9093C168.429 17.0958 170.974 16.6734 172.761 16.2996C173.199 16.208 173.626 16.0732 174.075 15.9725C174.54 15.8682 175.005 15.8654 175.392 15.5884C173.633 15.5572 172.309 16.0554 170.512 16.1562C168.776 16.2538 167.056 16.4023 165.29 16.5549C165.564 16.3332 165.99 16.2814 166.314 16.2486C166.584 16.2214 166.987 16.1716 167.454 16.1266C168.229 16.0519 168.827 15.8559 169.684 15.8136L168.899 15.6975L172.134 14.8867C170.592 14.8808 161.06 15.9061 159.093 16.1783C157.468 16.4031 147.058 16.816 146.391 16.658C146.896 16.3328 147.48 16.0266 148.072 15.9677C150.399 15.7362 157.62 15.1119 159.453 15.1175C160.297 15.1198 160.7 14.916 161.561 14.8757C163.923 14.765 165.679 14.4225 168.017 14.0633C169.43 13.846 171.031 13.7674 172.474 13.6172C175.157 13.3375 178.223 12.767 180.869 12.3798C181.165 12.1597 181.123 12.1202 181.894 12.102C182.247 12.0937 182.295 12.1858 182.666 12.0633L170.797 12.8168C171.517 12.3754 170.706 12.8867 171.031 12.6978C171.399 12.4845 171.173 12.8069 171.393 12.4058C171.002 12.2976 171.718 12.5493 170.787 12.4738C170.192 12.4256 170.262 12.3442 169.65 12.3241C170.008 12.0321 169.625 12.2277 170.199 12.0518L171.626 11.9819C172.402 11.8776 172.937 11.7994 173.691 11.7425C174.161 11.7069 175.512 11.5267 175.791 11.5449C176.341 11.5813 176.115 11.7207 176.744 11.7049C176.819 11.703 178.543 11.4173 179.576 11.4552C182.628 11.5666 181.013 10.9973 185.216 10.8756C185.364 10.5674 184.912 10.6662 185.253 10.5445C185.491 10.4596 185.346 10.5769 185.367 10.5844C186.116 10.8519 185.283 10.4485 187.035 10.4746C187.214 10.1644 187.009 10.2687 187.536 9.85622C186.199 9.83726 184.717 11.0163 183.129 9.0506C182.546 9.15926 182.824 9.23946 182.316 9.24895L181.583 9.07036C181.822 8.87162 181.723 8.91824 182.13 8.77245L187.292 8.22602C188.593 7.91783 188.311 8.31966 188.772 7.83763C188.278 8.05414 187.829 7.96525 187.316 7.98224C186.376 8.01345 186.553 8.26355 185.816 8.33665L182.535 8.71516C181.959 7.94114 181.432 8.29358 181.124 7.55473C182.015 6.84868 184.107 7.55236 184.755 7.58752C186.109 7.66141 189.632 7.41289 190.828 7.20269L195.322 6.5962C195.937 6.52627 199.337 6.43698 200.008 5.97035L197.964 5.37177C197.705 4.99207 197.868 5.50255 198.003 5.25719C198.254 4.80242 198.241 5.52428 198.1 5.15604C197.469 5.09243 197.381 5.20306 196.805 5.01183L196.597 4.89053L196.597 4.89211ZM178.938 5.97312C182.051 5.27497 180.294 5.73803 182.181 5.54799C183.523 5.41286 184.17 5.22321 185.677 5.16513C186.884 5.1189 188.188 5.09006 189.46 5.0142C190.891 4.92885 191.934 4.723 193.32 4.77358L192.84 5.07346C191.387 5.75858 188.585 4.99721 187.683 5.2888C187.261 5.42511 187.662 5.27694 187.276 5.51282C187.02 5.67007 187.261 5.53969 187 5.68667C186.093 6.19794 179.021 6.8388 178.427 6.75108C178.897 6.36309 178.677 6.48439 178.938 5.97233L178.938 5.97312Z" fill="#FA4B12"/>
</svg>
