<svg width="70" height="70" viewBox="0 0 70 70" fill="none" xmlns="http://www.w3.org/2000/svg">
<rect width="70" height="70" rx="4" fill="#090707"/>
<path fill-rule="evenodd" clip-rule="evenodd" d="M20.1377 20.0001H20.8043C23.8377 20.1011 23.3576 21.625 24.2172 21.45L24.5228 21.4187C24.5941 21.4362 24.6942 21.2764 24.6047 21.5645C24.6004 21.5783 24.5641 21.6275 24.5583 21.6378C24.5561 21.6416 24.5364 21.6841 24.5347 21.6728C24.533 21.6618 24.5081 21.6942 24.5122 21.7072C26.2838 21.7072 25.4548 21.9747 26.3535 22.0486C26.1895 22.4967 26.3362 22.0612 26.0083 22.5039C26.5365 22.6256 26.5553 22.4684 26.9578 22.7043L27.176 22.886C27.4237 23.12 28.8617 23.3852 29.1154 24.3248C29.6239 24.2809 29.4508 24.4748 29.3455 23.9833C30.0668 24.0456 29.4712 23.9696 29.6346 24.2991C29.8354 24.7039 29.8101 24.3638 30.3479 24.8182C30.4819 24.9315 30.5371 24.9652 30.6169 25.104C30.8238 25.464 30.4695 25.3317 31.1525 26.2934C31.3092 26.514 31.2356 26.4308 31.417 26.6009L31.8773 26.4871C31.8992 27.459 31.9551 26.5489 32.4611 27.1405C32.7134 27.4355 32.2145 27.522 32.6006 28.1513C32.0731 31.8077 30.036 32.1775 30.2671 32.521C30.0551 32.3421 30.1233 32.5004 30.0361 32.1775C29.5458 32.2905 29.6413 32.3881 29.3458 32.5072C28.9003 32.6867 29.1895 32.3792 28.6551 32.6327C28.911 32.9831 28.6088 32.8526 29.1154 32.7465C28.8936 33.5681 28.4643 32.5451 28.1948 33.5432C28.7523 33.396 28.3278 33.349 28.8853 33.2017C28.8251 33.746 28.8405 33.3492 28.7534 33.5274C28.4095 34.2305 28.8767 33.7932 28.3199 34.113C27.8736 34.3694 27.6353 34.3195 27.6194 35.0227C27.303 34.9966 27.369 35.0117 27.1591 34.9089C27.3628 34.3522 27.9185 34.235 28.3099 33.657L26.2616 35.0455C25.6561 35.7594 25.4493 35.5741 25.3178 35.9332C25.5212 35.9999 25.4918 35.9204 25.6631 36.3884C26.4369 35.9834 26.3591 36.2047 27.0441 36.047V36.2746C26.7543 36.3511 26.4683 36.5398 26.1918 36.6836L24.5868 37.3726C24.2332 37.567 24.2395 37.6675 23.9369 37.8679C23.2474 37.6418 24.1543 37.8958 23.7156 37.6312L23.3353 37.5447C23.3323 37.5442 23.0176 37.2448 22.5559 37.8679C22.462 38.0332 22.5001 37.9883 22.4409 38.2093C23.225 38.2093 22.9758 38.0324 23.5917 37.9817C23.2901 37.5686 23.8541 37.8679 22.5559 37.8679L20.9322 38.4244C20.266 38.6134 18.1098 39.2015 17.6894 39.542C16.7233 40.3244 17.568 40.5773 16.5718 40.5993C16.5718 40.9583 16.5291 41.1444 16.4999 41.3849C16.496 41.4169 16.4881 41.5016 16.4836 41.5296C16.4809 41.546 16.4749 41.5795 16.472 41.5949L16.4575 42.1596C16.4601 42.1747 16.467 42.2079 16.4691 42.224C16.4714 42.2414 16.4739 42.2758 16.4757 42.2944C16.4992 42.5397 16.4377 42.6664 16.5718 42.8753V43.1029L16.537 43.2406C16.5363 43.2546 16.5321 43.2924 16.5327 43.3078C16.5436 43.5804 16.7713 43.7443 16.7015 44.0592C16.6799 44.1565 16.4649 44.2653 16.5949 44.7703C16.6659 45.046 16.7403 45.0081 16.9142 45.268C17.4734 46.1038 17.1875 47.2062 16.2267 47.4276C16.2696 47.9373 16.3454 47.81 16.5099 48.1718C16.9935 49.2352 16.0105 52.283 16.8021 53.9146C16.3495 54.0995 16.4843 53.9436 16.0914 53.8222C15.4142 53.6128 16.1063 53.7834 15.6468 53.8137L15.4934 53.812C15.0019 53.8229 15.5587 54.0515 15.0925 53.7808C14.8624 53.6473 14.837 53.4463 14.5186 52.9861L14.3854 52.7765C13.4682 52.5343 14.0048 52.2394 13.4281 51.103L13.359 50.9736C13.3527 50.957 13.3395 50.9264 13.335 50.9093C13.3303 50.8921 13.3219 50.8601 13.3192 50.8421C13.2866 50.6149 13.3984 50.2956 13.4648 50.1589C13.1207 50.1217 13.1722 50.1061 13.0045 49.9313L12.7804 49.8078L12.7743 50.1589H13.0044V49.9313C12.9853 49.0816 12.838 49.3396 13.1271 48.4521C13.3154 47.8741 13.0399 47.0531 13.0986 46.1553C13.2064 44.5042 13.1158 45.2953 13.1194 43.672C13.1255 40.9382 12.9119 42.0932 12.894 41.1754L12.9073 40.4686C12.8799 39.9137 12.9068 38.6799 12.6207 38.2735C12.4019 37.9626 12.2804 38.3574 12.429 37.9815L12.2713 37.3407C12.1844 36.9987 12.1888 37.2322 12.0838 36.8434C12.7979 36.6548 12.198 36.6217 12.4123 36.0182C12.599 35.4924 12.5617 35.8826 12.5671 35.4561C12.5672 35.4457 12.5657 35.4155 12.5665 35.4045C12.6428 34.4145 12.7941 34.0526 12.4952 32.9085C12.3892 32.5026 12.2765 32.2773 12.1566 31.8777C12.0408 31.4917 11.9656 31.1238 11.8674 30.7981C11.3885 29.2114 11.5004 28.666 11.3502 28.0013C11.1742 27.2228 11.3375 27.3299 11.1136 27.1062C11.0145 27.0072 10.8185 26.9685 10.6825 26.85C10.5305 26.7176 9.98804 25.3714 10.0002 24.8951C10.0228 24.0053 10.5824 23.7767 11.0142 23.2669L12.314 21.9347C11.9078 21.8275 11.8652 21.7537 12.2202 21.5181C12.8072 21.1287 12.8071 21.7386 13.9052 21.3252C14.7776 20.9968 14.0089 21.4761 14.7073 21.3549C15.1186 21.2835 14.5569 21.3201 15.0878 21.2718C15.903 21.1976 15.164 21.4505 16.5006 21.1873C16.8668 21.1151 16.9037 21.2224 17.2624 21.2519C17.0116 20.9134 16.6014 20.8624 17.3806 20.7008C18.7218 20.4226 18.6512 20.0485 20.1379 20L20.1377 20.0001ZM14.2701 52.3213L14.3045 52.3553C14.3022 52.353 14.2587 52.3327 14.2701 52.3213ZM23.2882 48.1929C23.3041 48.2057 23.3261 48.223 23.3555 48.2467C23.5137 48.3745 23.3652 48.2783 23.5916 48.3381C23.5496 48.1828 23.6333 48.2179 23.6149 48.1966C35.0154 48.3254 38.9188 48.3696 23.6149 48.1966C23.6064 48.1866 23.5756 48.1645 23.4992 48.1047C23.2965 47.9462 23.5159 48.0429 23.3614 48.1105C23.3165 48.2108 23.1916 48.1159 23.2882 48.1929ZM15.9963 48.1105L16.0307 48.1444C16.0284 48.1422 15.9849 48.1218 15.9963 48.1105ZM15.536 44.5825L15.5704 44.6164C15.5681 44.6142 15.5246 44.5937 15.536 44.5825ZM15.7662 44.6963C15.6439 44.1775 15.5073 44.3981 15.8813 44.1272C15.9643 44.326 15.9802 44.4892 15.7662 44.6963ZM15.6511 43.8996C15.5891 43.5678 15.8971 43.9287 15.7686 43.9209C15.5343 43.9066 15.6958 44.1385 15.6511 43.8996ZM15.536 43.2168L15.5704 43.2507C15.5681 43.2485 15.5246 43.228 15.536 43.2168ZM15.421 41.9649C15.421 41.6737 15.6032 41.9466 15.4894 41.9649C15.488 41.9651 15.421 42.2826 15.421 41.9649ZM16.1115 41.5096C16.1115 41.2185 16.2937 41.4914 16.1799 41.5096C16.1785 41.5099 16.1115 41.8274 16.1115 41.5096ZM15.421 41.3958L15.4553 41.4298C15.453 41.4275 15.4096 41.4071 15.421 41.3958ZM15.9963 40.713H16.1114V41.282H15.9963V40.713ZM17.2622 38.6645L17.2966 38.6984C17.2943 38.6962 17.2508 38.6758 17.2622 38.6645ZM12.544 37.2988L12.5784 37.3327C12.5761 37.3305 12.5326 37.3101 12.544 37.2988ZM24.6273 36.5022L24.6616 36.5361C24.6594 36.5339 24.6158 36.5135 24.6273 36.5022ZM25.3177 35.9332C25.3554 36.2735 25.3712 36.2226 25.5479 36.3884C25.1805 36.4653 25.3687 36.5032 25.0876 36.3884C25.1616 36.0743 25.143 36.132 25.3177 35.9332ZM24.7424 36.2746C24.8647 36.1536 25.1789 36.4552 24.8706 36.3337C24.868 36.3327 24.5496 36.4652 24.7424 36.2746ZM18.6432 34.3387V34.226C18.0348 34.226 18.4716 34.2268 18.298 34.3398H18.6432V34.3387ZM18.298 34.3398C18.2647 34.2833 17.9057 34.1251 18.4152 34.0383C18.6978 33.9902 18.6172 34.0564 18.8734 34.226C18.667 34.5046 18.7168 34.4709 18.298 34.5674C18.2036 34.4155 18.1388 34.7071 18.298 34.3398H18.298ZM17.9527 34.1122C17.9527 33.8212 18.1349 34.094 18.0211 34.1122C18.0197 34.1125 17.9527 34.43 17.9527 34.1122ZM18.413 33.5432L18.8733 33.657C18.8092 33.657 18.6855 33.6593 18.6509 33.6494C18.4473 33.5915 18.5231 33.6123 18.413 33.5432ZM17.2622 33.4294C17.5528 33.3107 17.7373 33.3663 17.9527 33.657C17.6223 33.6299 17.8339 33.6752 17.5661 33.5841C17.1576 33.4452 17.3992 33.5235 17.2622 33.4294ZM21.7503 32.9742L21.7847 33.0081C21.7823 33.0059 21.7389 32.9855 21.7503 32.9742ZM15.1908 32.6327C15.1496 32.4173 15.3357 32.228 15.2636 32.5607C15.2619 32.5685 15.2668 33.0301 15.1908 32.6327ZM25.2027 30.0152L25.237 30.0491C25.2348 30.0469 25.1913 30.0265 25.2027 30.0152ZM25.2027 27.2838C25.2027 26.9927 25.3849 27.2656 25.2711 27.2838C25.2697 27.2841 25.2027 27.6015 25.2027 27.2838ZM16.1115 27.17L16.1458 27.204C16.1435 27.2017 16.1001 27.1814 16.1115 27.17ZM31.3019 26.8286L31.3362 26.8626C31.334 26.8603 31.2904 26.8399 31.3019 26.8286ZM16.917 26.8286C17.0713 26.7132 16.675 26.7148 17.2623 26.7148C17.1216 26.8201 17.3917 26.7887 16.917 26.8286ZM25.3177 28.8772C25.2481 29.2497 25.4643 29.0359 25.0876 29.1048V28.991L24.9533 29.0858L25.0876 29.1048C25.2419 29.2202 24.8455 29.2186 25.4328 29.2186C25.3346 29.5826 25.389 29.3757 25.1928 29.6642C24.9773 29.981 25.1337 29.6475 24.9518 30.1093L24.472 31.064C24.2455 31.2984 24.5994 30.9358 24.3391 31.1543L24.0086 31.4981C23.9981 31.5064 23.9707 31.5247 23.9597 31.5321L23.2796 31.866C22.9806 32.0005 23.0799 31.9262 22.8183 32.0956L21.5771 32.9167C20.9694 33.2432 20.2829 32.9402 19.4488 33.6571C19.0846 33.5227 19.2838 33.9042 19.2187 33.3157C17.4984 33.3157 17.3783 33.0881 16.687 33.0881V32.9743L16.5527 33.0691L16.687 33.0881L17.2624 33.4295C16.9938 33.4914 15.8307 33.5767 15.6887 33.0688C15.6841 33.0524 15.6805 33.0187 15.6772 33.0002L15.6643 32.8357C15.5677 31.4386 15.4133 28.8744 15.6621 27.6193C15.7953 26.9474 15.9411 27.3836 16.0649 27.4211C17.3771 27.8182 17.1972 27.0511 18.3267 26.0606C18.7195 25.7161 18.9346 25.4209 18.9885 24.7803L20.3426 24.7417C20.3611 24.734 20.3911 24.7166 20.41 24.7076C21.8108 24.0445 20.8581 23.6742 22.2319 23.5841L22.5728 23.5344C22.8057 23.5044 22.6328 23.7138 22.7612 24.0318C22.9773 24.5668 23.3185 24.7855 23.8847 25.0595C24.24 25.2315 24.2617 25.3388 24.7424 25.3494C24.3992 26.171 25.326 27.8655 25.0877 28.8774H25.3179L25.3177 28.8772ZM18.2979 44.8102L18.3819 44.9547C18.6328 45.2806 18.8453 45.5313 19.3336 44.8102L19.0971 44.3583C18.5843 44.3507 18.584 44.3876 18.2979 44.8102ZM16.1114 30.3567C16.107 30.1634 16.1367 30.1257 16.0711 29.9413C15.9466 29.5911 15.9591 29.7624 15.8813 29.6738C15.8813 30.2639 15.7786 30.1155 16.1114 30.3567ZM20.3693 26.032V26.2596C20.8191 26.2226 20.7189 26.3285 20.8296 25.9181C20.5997 26.0309 20.7026 25.9975 20.3693 26.0319V26.032ZM16.1114 31.0395C16.0669 30.511 16.2348 30.8405 15.8813 30.5843C15.7578 30.88 15.7849 30.8233 16.1114 31.0395ZM16.2265 27.9667C15.9648 27.4777 16.2577 27.76 15.8812 27.6253C15.9708 27.9571 15.8823 27.8852 16.2265 27.9667ZM15.9963 31.2671C16.0206 31.3969 16.2493 31.5159 16.1512 31.2901C16.1098 31.1948 15.9411 30.9715 15.9963 31.2671ZM12.0837 36.5022C12.1079 36.6321 12.3366 36.7511 12.2385 36.5252C12.1971 36.4299 12.0285 36.2066 12.0837 36.5022ZM24.6273 29.2186C24.9915 29.0842 24.7923 29.4657 24.8574 28.8772L24.6273 29.2186ZM27.159 36.1608C27.2772 36.2776 27.5753 35.997 27.2925 36.0994C27.2897 36.1004 26.9659 35.9698 27.159 36.1608ZM15.8813 29.3324C15.8813 29.4662 16.1289 29.5888 16.0594 29.3324C15.9897 29.0752 16.3522 29.3293 16.0063 29.2986C15.8613 29.2858 15.8813 29.101 15.8813 29.3324ZM11.5083 35.5917C11.5083 35.8745 11.6923 35.6209 11.5796 35.5917C11.5783 35.5914 11.5083 35.2688 11.5083 35.5917ZM15.9963 31.8361C15.9963 32.1189 16.1803 31.8652 16.0677 31.8361C16.0663 31.8357 15.9963 31.5132 15.9963 31.8361ZM16.6869 50.9557C16.487 51.1533 16.8277 51.0287 16.7186 50.9533C16.7177 50.9527 16.6943 50.9483 16.6869 50.9557ZM15.9963 28.6495C16.0078 28.6608 16.0306 28.5996 16.0306 28.6155C16.0306 28.622 16.0452 28.6012 16.0447 28.6017C16.0442 28.6022 16.0316 28.6147 16.0307 28.6156C16.0284 28.6178 15.9849 28.6381 15.9963 28.6495ZM11.8535 38.2093C11.865 38.2206 11.8877 38.1594 11.8878 38.1754L11.8879 38.1754C11.8856 38.1776 11.8421 38.1981 11.8535 38.2093V38.2093ZM11.5083 38.7783C11.5198 38.7896 11.5425 38.7284 11.5426 38.7444L11.5426 38.7444C11.5403 38.7467 11.4969 38.7671 11.5083 38.7784V38.7783ZM15.421 21.1382C15.4324 21.1495 15.4552 21.0883 15.4553 21.1042L15.4553 21.1043C15.453 21.1065 15.4096 21.1269 15.421 21.1382ZM29.1154 33.2017L29.1497 33.1678C29.1474 33.17 29.1039 33.1905 29.1154 33.2017ZM15.8813 28.9909L15.9156 28.957C15.9133 28.9592 15.8699 28.9796 15.8813 28.9909Z" fill="#FA4B12"/>
<path fill-rule="evenodd" clip-rule="evenodd" d="M40.7327 48.5384V48.675C41.0316 48.568 40.9611 48.582 41.1443 48.3993C41.5073 48.0373 41.2494 48.4667 41.4231 47.9922C41.365 48.0226 41.1335 48.1298 41.064 48.1833L40.7327 48.5384L40.7327 48.5384ZM51.226 43.3497L51.2673 43.309C51.2645 43.3116 51.2123 43.3362 51.226 43.3497ZM39.3519 31.6068L39.3932 31.5661C39.3904 31.5688 39.3382 31.5933 39.3519 31.6068ZM39.3519 52.0886L39.3932 52.0479C39.3904 52.0505 39.3382 52.075 39.3519 52.0886ZM40.1804 46.6268L40.0423 46.7633L39.8835 46.4971L40.1804 46.6268ZM40.0423 46.7633H40.1804C40.3413 47.1487 40.4071 46.9124 40.0423 47.173V46.7633ZM39.7661 34.0646H39.6281L39.7431 34.2239L39.7662 34.0646L39.8702 34.2123C39.993 34.434 39.9326 34.322 39.9784 34.4304L40.0531 35.14C39.9417 35.6629 40.2095 37.9349 40.2922 38.5383C40.4431 39.6405 38.4298 41.6265 38.1589 42.7161C37.5311 45.2416 37.2821 44.8103 37.6947 48.5389C37.9116 50.4984 38.7997 52.5539 38.7997 54.0003H38.9378C38.9378 52.3784 38.6635 53.0311 39.0745 51.817C39.338 51.0384 39.0363 51.0303 39.2707 50.5993C39.3214 50.5061 39.5217 50.711 39.5428 49.896L39.7662 47.3095C40.3458 47.3223 40.0967 47.1963 40.7347 47.7171C40.9951 47.9296 40.8588 47.6247 41.0088 47.9922C41.584 47.5814 40.6923 47.5289 41.6992 47.446L41.9028 48.464C42.0126 48.9816 41.9265 51.4187 42.2514 52.0886C42.9667 52.0298 42.6316 51.9196 42.5795 51.4372C42.524 50.9242 42.6756 50.8945 42.7397 50.2742C42.7856 49.8297 42.5066 47.5627 42.6657 47.3095C42.7827 47.8064 42.7419 47.7474 43.0799 47.9922C43.0799 47.562 43.1574 47.0851 42.9555 46.8994C42.6614 46.6291 42.7982 46.8237 42.6657 46.8999C42.3856 46.424 42.6465 45.3526 42.6657 45.1248C42.7731 45.2922 42.76 45.0901 42.7646 45.4061C42.7687 45.6928 42.7675 45.5979 42.6657 45.8075C44.0117 45.8372 42.532 46.4599 43.9084 46.4903C43.9293 45.5629 44.2499 45.9881 44.0499 45.2649C43.8379 44.4981 43.8645 44.6681 44.0464 43.8959C43.5093 44.2851 44.0377 44.111 43.4941 44.3056C43.5698 43.9841 43.6228 43.9023 43.6322 43.4863C44.1342 43.8187 43.9889 44.0015 44.0464 43.3498C43.5876 43.1994 43.8111 43.6025 44.1135 42.5601L44.2479 42.1945C44.5824 41.3759 44.567 41.2245 44.5981 40.2075C44.6178 39.562 44.8464 39.2299 44.5987 38.8438C44.3652 38.5287 44.5533 38.8273 44.3728 38.6576C43.567 37.9001 44.5645 37.9976 43.6322 37.7514V37.4783C44.3418 37.4627 44.0287 37.602 44.3225 37.2052C44.2 37.2335 43.7865 37.5866 43.4512 36.8445C43.3244 36.5639 43.3648 36.7741 43.3561 36.386C43.7428 36.7892 43.6111 36.6546 44.1845 36.5225C43.9334 35.7735 44.288 36.705 43.839 36.2506C43.7353 36.1457 43.4181 35.9423 43.7689 35.8439C44.4899 35.6418 43.4696 35.924 44.1702 36.0741C44.7275 36.1935 44.5199 36.1325 44.7367 35.8397H44.1844C44.2914 35.4436 44.1685 35.6611 44.4504 35.42C44.6319 35.2647 44.7349 35.2304 45.0128 35.157C44.8031 35.5893 44.8748 35.7789 44.8748 36.3859C44.8932 36.357 44.9131 36.2742 44.9193 36.2935L45.0032 36.1034C45.0137 36.0763 45.0298 36.0346 45.0409 36.0041L45.3944 34.5786L45.3112 29.8089L44.8747 28.0567C45.8051 27.956 44.9511 27.9861 45.4299 27.8007C45.8086 27.654 45.495 28.2679 45.7032 27.647C46.1627 27.4963 45.8885 27.6629 45.8413 27.1008L49.6897 26.78C50.11 26.7926 50.3013 26.9022 50.6211 26.8751L51.1432 26.7521C51.172 26.7436 51.2099 26.7277 51.2376 26.7196L52.232 26.613C52.6755 26.6891 52.2833 26.8276 53.0209 26.8276V26.9642C52.7547 26.9642 52.4458 26.9418 52.1925 27.1008L49.6713 27.3632L49.5691 27.3738C49.5691 27.4535 49.5691 27.5265 49.5694 27.5937C49.574 28.4749 49.6424 28.3297 50.6737 28.3297C50.8446 28.0102 50.9107 27.9742 50.9498 27.5104C52.3978 27.5104 52.0785 27.4028 52.1924 27.1008L53.8493 27.5104C53.0989 27.5104 53.3036 27.6274 52.7447 27.5104C53.3146 28.2796 54.0894 28.0526 55.3685 28.057C57.8254 28.0654 57.3245 27.7246 58.2676 27.647C58.1848 26.6631 57.9398 27.4831 57.865 26.8162C57.7767 26.0291 58.1491 27.4017 57.8577 26.6322C57.8559 26.6275 57.6233 26.3437 57.5773 26.2815C57.8001 26.2631 58.1155 26.2259 58.1822 26.2127C58.3403 26.1815 58.1327 26.2519 58.429 26.1447C58.8226 26.0022 58.567 26.0757 58.7335 26.0069C59.4355 25.7166 59.1103 26.0137 59.5103 25.1891C57.6331 25.3436 58.9847 25.214 57.8534 25.1891C58.133 24.9268 58.1894 24.8258 58.4057 24.5064H58.5438L58.4287 24.3471L58.4057 24.5064C57.5334 24.5782 58.2325 24.8034 57.4338 24.6607C56.8142 24.55 56.7896 24.5156 56.4674 23.9543C56.3082 23.6768 56.4256 23.9327 56.3295 23.703L56.2366 23.2968C56.2332 23.2792 56.227 23.2387 56.2235 23.2217L56.144 22.9431C55.8895 22.2981 55.1415 22.7269 53.9041 22.6676L51.7783 22.5948C51.4103 22.3638 50.5857 22.3831 50.1855 22.5229C49.3606 22.811 50.4054 22.8018 48.9437 22.8353C46.3901 22.894 47.5058 22.9956 45.9195 23.0961C45.3712 23.1308 44.7301 23.105 44.2028 23.1591C43.7511 23.2055 43.1431 23.3715 42.656 23.411C41.3224 23.5191 40.9775 22.9615 39.4104 23.1983C38.8185 23.2878 38.31 23.2321 37.7283 23.3102L31.3163 24.0693C30.7143 24.252 30.608 24.3623 30.2881 24.8277C29.3995 26.1208 29.7596 25.9238 30.1012 27.3737C29.6475 27.4936 29.6465 27.5718 29.4109 27.9199C30.0964 28.1009 29.3236 28.0451 30.53 28.1772C32.5424 28.3977 31.7055 28.5402 31.9722 29.0721C32.0975 29.3218 32.1376 29.1914 32.5865 29.2854L32.46 29.0314C32.3992 28.8094 32.3247 29.0521 32.4484 28.7392C32.7035 28.7392 33.0607 28.7121 33.2949 28.7214C34.0922 28.753 33.8107 28.6286 33.9672 29.0122C34.095 28.8453 34.0568 29.1657 34.1053 28.6026L35.069 28.6877C35.0952 28.6859 35.1353 28.6776 35.1599 28.6741L36.7286 28.6026C36.8132 28.9617 36.8542 29.0038 37.0048 29.2853H38.1093C38.2599 29.0038 38.3009 28.9617 38.3855 28.6026H38.9378V29.4219C38.9561 29.3933 38.9776 29.3117 38.9845 29.3316L39.2139 28.8757C39.3067 29.9782 39.6304 29.8533 39.7354 30.6137C39.828 31.2839 39.921 31.2645 39.49 32.1527C40.7295 33.1632 39.3416 32.0134 40.0423 33.9279L39.7662 34.0644L39.7661 34.0646ZM45.1509 49.4942C45.1509 49.8334 45.3717 49.5291 45.2366 49.4942C45.2349 49.4938 45.1509 49.1068 45.1509 49.4942ZM29.9631 39.1168C29.9631 39.456 30.1838 39.1517 30.0487 39.1168C30.047 39.1164 29.9631 38.7294 29.9631 39.1168ZM40.0423 47.8557C40.0423 48.1949 40.2631 47.8906 40.1279 47.8557C40.1262 47.8552 40.0423 47.4682 40.0423 47.8557ZM29.5489 33.7915C29.5545 33.8367 29.7012 33.8221 29.7135 33.8176C29.7479 33.8049 29.9533 34.1336 29.7734 33.7809L29.7014 33.7485C29.5945 33.7462 29.5136 33.5103 29.5489 33.7915V33.7915ZM29.9631 28.4663C29.9688 28.5114 30.1154 28.4969 30.1277 28.4923C30.1621 28.4796 30.3676 28.8084 30.1877 28.4557L30.1157 28.4233C30.0088 28.421 29.9279 28.1852 29.9631 28.4663ZM31.0677 32.153C31.0734 32.1981 31.22 32.1836 31.2323 32.1791C31.2667 32.1663 31.4721 32.4951 31.2922 32.1424L31.2203 32.11C31.1134 32.1077 31.0325 31.8719 31.0678 32.153H31.0677ZM30.6535 21.7756C30.6592 21.8207 30.8058 21.8062 30.8181 21.8017C30.8525 21.7889 31.0579 22.1177 30.878 21.765C30.874 21.7572 30.6204 21.5124 30.6535 21.7756ZM58.5439 25.0527C58.5496 25.0978 58.6962 25.0833 58.7085 25.0788C58.7429 25.066 58.9483 25.3948 58.7684 25.0421C58.7645 25.0343 58.5109 24.7895 58.5439 25.0527L58.5439 25.0527ZM59.9246 24.9161C59.9537 25.0719 60.2282 25.2147 60.1104 24.9437C60.0607 24.8293 59.8584 24.5615 59.9246 24.9161ZM34.6576 44.7152C34.6867 44.871 34.9611 45.0137 34.8434 44.7428C34.7937 44.6284 34.5913 44.3606 34.6576 44.7152ZM28.8586 44.4421C28.8878 44.5979 29.1621 44.7407 29.0444 44.4698C28.9948 44.3553 28.7924 44.0875 28.8586 44.4421ZM38.9378 29.9683H39.0758V29.5587H38.9378V29.9683ZM30.7916 44.7152H31.2058V44.5786H30.7916V44.7152ZM42.8038 46.3537H42.9419V45.9441H42.8038V46.3537ZM32.3104 32.153V31.88H31.8962C32.1139 32.1897 31.9222 32.0395 32.3104 32.153ZM47.4983 28.7394C47.6382 28.7025 48.0314 28.7205 47.7744 28.4663C47.6326 28.4043 47.8124 28.2131 47.6091 28.4593C47.4513 28.6503 47.5131 28.2092 47.4983 28.7394ZM46.946 22.4583C46.6321 21.8716 46.9834 22.2104 46.5318 22.0487C46.6393 22.4469 46.533 22.3606 46.946 22.4583ZM48.1886 33.9282H48.4647V33.5185H48.1886V33.9282ZM39.3521 30.7876H38.7998C38.826 30.8848 38.6783 31.3902 39.1451 31.0157C39.2954 30.8951 39.3465 30.7929 39.3521 30.7876H39.3521ZM48.0505 27.374C48.2389 27.632 48.2071 27.6064 48.4349 27.6006C49.1903 27.5815 48.7425 27.3785 48.7409 27.374C48.5272 27.2744 48.4682 27.364 48.0506 27.374H48.0505ZM36.3145 49.6308V49.2212H35.7622C35.8951 49.7135 35.7747 49.5865 36.3145 49.6308ZM50.3977 42.1208C50.6496 42.2444 50.5704 42.2262 50.95 42.2574C50.9136 41.8346 50.9518 41.9993 50.812 41.7112C50.2566 41.91 50.7916 41.5975 50.3977 42.1208ZM33.5531 29.6952C33.7415 30.3932 33.6975 29.9865 34.5196 29.9684C34.1154 29.3715 34.3742 29.6756 33.5531 29.6952ZM39.3521 37.2052C39.4017 37.7949 39.43 37.7379 40.0424 37.7514V37.0687C39.7801 37.0903 39.5588 37.1259 39.3521 37.2053V37.2052ZM43.3561 47.9923C43.9205 47.8432 44.2776 46.8887 44.3226 46.3537C44.3011 46.3781 44.2696 46.3855 44.2604 46.4288C44.2512 46.4721 44.2097 46.4876 44.1968 46.5027C43.1834 47.6873 43.6476 46.6312 43.3561 47.9922V47.9923ZM36.5906 33.382C36.5906 33.7471 36.7899 33.7859 37.0048 33.9282C37.2833 33.7264 37.4539 33.4912 37.5571 33.1089C37.3068 33.0496 36.5906 32.6921 36.5906 33.382H36.5906ZM35.7622 35.5667H36.3145C36.4444 35.2988 36.3627 35.5466 36.402 35.2709C36.535 34.3361 36.612 34.878 36.4525 34.2013C35.9183 34.5884 35.644 35.0149 35.7622 35.5668L35.7622 35.5667ZM38.3855 36.9321C38.3855 35.9634 38.4123 35.6223 38.5604 34.7838C38.6941 34.027 38.7997 33.7295 38.7997 32.6993H38.6616C38.6616 33.3514 38.3347 33.7139 38.2497 34.8863L38.0538 36.6458C38.2117 37.1895 38.0011 36.7946 38.3855 36.9322V36.9321ZM43.4941 49.9039L43.5353 49.9447C43.5326 49.942 43.4804 49.9175 43.4941 49.9039ZM43.0799 49.4943L43.6322 49.7674C43.2025 49.8691 43.218 49.7908 43.218 50.3136C43.466 50.4094 43.2474 50.4226 43.4399 50.3411C43.4543 50.335 43.6306 50.1787 43.6322 50.177C43.6322 50.8851 43.5091 50.707 43.9084 50.9963C43.9084 49.9149 43.8346 49.3977 43.6322 48.5385C43.2047 48.5025 43.3712 48.5402 43.0799 48.4019C43.098 49.2084 43.253 48.7593 43.0799 49.4943V49.4943ZM49.8454 30.1049C51.7044 30.1049 50.4727 28.6029 50.1215 28.6029C48.7747 28.6029 49.0663 30.1049 49.8454 30.1049ZM57.3012 23.0045C57.3012 23.7585 57.8072 23.9415 58.2056 23.8774C58.6295 23.8092 58.958 23.4045 58.958 23.0045C58.958 22.1874 57.3012 22.1179 57.3012 23.0045ZM36.5905 31.1973C36.5905 32.1824 36.9092 32.2237 37.557 32.5627C37.9412 31.8446 38.4026 31.1848 38.0443 30.7207C37.4769 29.9859 36.5905 30.5471 36.5905 31.1973ZM61.5814 22.3218C63.143 22.3218 63.3127 20.0005 61.4433 20.0005C59.8058 20.0005 59.5585 22.3218 61.5814 22.3218ZM41.6992 47.173L41.7404 47.2137C41.7377 47.2111 41.6855 47.1866 41.6992 47.173ZM43.4941 46.2172L43.5353 46.2579C43.5326 46.2553 43.4804 46.2308 43.4941 46.2172ZM51.7784 22.5949L51.1044 22.7476C50.6516 22.8042 50.6846 22.833 50.2596 22.868C50.5851 22.4287 51.0221 22.5948 51.7784 22.5948V22.5949Z" fill="white"/>
</svg>
